<?xml version="1.0" encoding="UTF-8"?>
<svg width="64px" height="64px" viewBox="0 0 64 64" version="1.1" xmlns="http://www.w3.org/2000/svg" xmlns:xlink="http://www.w3.org/1999/xlink">
    <!-- Generator: Sketch 45.2 (43514) - http://www.bohemiancoding.com/sketch -->
    <title>syringe</title>
    <desc>Created with Sketch.</desc>
    <defs></defs>
    <g id="Page-1" stroke="none" stroke-width="1" fill="none" fill-rule="evenodd">
        <g id="syringe" fill-rule="nonzero">
            <path d="M53.2046102,42.4656271 L20.1773559,9.43945763 L9.43837288,20.1773559 L21.0202034,31.7591864 L21.0202034,31.7591864 L24.8547797,27.9235254 C25.2789153,27.4993898 25.9644746,27.4993898 26.3886102,27.9235254 C26.8127458,28.3465763 26.8127458,29.0332203 26.3886102,29.4573559 L22.5540339,33.2930169 L22.5540339,33.2930169 L24.0878644,34.8268475 L24.0878644,34.8268475 L27.9235254,30.9922712 C28.347661,30.5681356 29.0332203,30.5681356 29.4573559,30.9922712 C29.8814915,31.4164068 29.8814915,32.1030508 29.4573559,32.5261017 L25.6216949,36.360678 L25.6216949,36.360678 L42.4645424,53.2035254 C44.1350508,54.8740339 46.8425763,54.8740339 48.512,53.2035254 L53.2024407,48.5130847 C54.8740339,46.843661 54.8740339,44.1361356 53.2046102,42.4656271 Z" id="Shape" fill="#DFF2F8"></path>
            <path d="M42.4656271,53.2046102 C44.1361356,54.8751186 46.843661,54.8751186 48.5130847,53.2046102 L53.2035254,48.5141695 C54.8740339,46.843661 54.8740339,44.1361356 53.2035254,42.4667119 L29.6532167,19.0233407 L19.1323971,29.6238735 L42.4656271,53.2046102 Z" id="Shape" fill="#8BF090"></path>
            <rect id="Rectangle-path" fill="#AFB6BB" transform="translate(10.637233, 10.637400) rotate(-45.000000) translate(-10.637233, -10.637400) " x="7.38302646" y="4.73806721" width="6.50841216" height="11.7986665"></rect>
            <path d="M6.37179661,24.3308475 C6.09410169,24.3308475 5.81640678,24.2245424 5.60488136,24.0130169 C5.18074576,23.5888814 5.18074576,22.903322 5.60488136,22.4791864 L22.4791864,5.60488136 C22.903322,5.18074576 23.5888814,5.18074576 24.0130169,5.60488136 C24.4371525,6.02901695 24.4371525,6.71457627 24.0130169,7.13871186 L7.13871186,24.0130169 C6.92610169,24.2245424 6.64840678,24.3308475 6.37179661,24.3308475 Z" id="Shape" fill="#D8EAEF"></path>
            <path d="M26.3896949,29.4584407 C26.8138305,29.0343051 26.8138305,28.347661 26.3896949,27.9246102 C25.9655593,27.5004746 25.28,27.5004746 24.8558644,27.9246102 L21.0212881,31.7602712 L21.0212881,31.7602712 L22.5551186,33.2941017 L22.5551186,33.2941017 L26.3896949,29.4584407 Z" id="Shape" fill="#7FABDA"></path>
            <path d="M29.4584407,32.5261017 C29.8825763,32.1030508 29.8825763,31.4164068 29.4584407,30.9922712 C29.0343051,30.5681356 28.3487458,30.5681356 27.9246102,30.9922712 L24.0889492,34.8268475 L24.0889492,34.8268475 L25.6227797,36.360678 L25.6227797,36.360678 L29.4584407,32.5261017 Z" id="Shape" fill="#7FABDA"></path>
            <path d="M62.3186441,63.4033898 C62.0409492,63.4033898 61.7632542,63.2970847 61.5517288,63.0855593 L54.6950508,56.2288814 C54.2709153,55.8047458 54.2709153,55.1191864 54.6950508,54.6950508 C55.1191864,54.2709153 55.8047458,54.2709153 56.2288814,54.6950508 L63.0855593,61.5517288 C63.5096949,61.9758644 63.5096949,62.6614237 63.0855593,63.0855593 C62.8729492,63.2970847 62.596339,63.4033898 62.3186441,63.4033898 Z" id="Shape" fill="#949493"></path>
            <polygon id="Shape" fill="#7FABDA" points="25.9633898 21.3608136 17.8776949 13.2501695 13.2751186 17.8527458 21.3608136 25.9633898"></polygon>
            <rect id="Rectangle-path" fill="#556080" transform="translate(23.662102, 23.662599) rotate(45.000000) translate(-23.662102, -23.662599) " x="22.5773663" y="16.0694519" width="2.16947072" height="15.186295"></rect>
            <path d="M1.08474576,12.9073898 C0.807050847,12.9073898 0.529355932,12.8010847 0.317830508,12.5895593 C-0.106305085,12.1654237 -0.106305085,11.4798644 0.317830508,11.0557288 L11.0557288,0.317830508 C11.4798644,-0.106305085 12.1654237,-0.106305085 12.5895593,0.317830508 C13.0136949,0.741966102 13.0136949,1.42752542 12.5895593,1.85166102 L1.85166102,12.5895593 C1.64013559,12.8021695 1.36244068,12.9073898 1.08474576,12.9073898 Z" id="Shape" fill="#E7ECED"></path>
            <circle id="Oval" fill="#FFFFFF" cx="39.0847458" cy="40.0847458" r="1.08474576"></circle>
            <circle id="Oval" fill="#FFFFFF" cx="39.0847458" cy="34.0847458" r="1.08474576"></circle>
            <circle id="Oval" fill="#FFFFFF" cx="31.0847458" cy="38.0847458" r="1.08474576"></circle>
            <circle id="Oval" fill="#FFFFFF" cx="33.0847458" cy="28.0847458" r="1.08474576"></circle>
            <circle id="Oval" fill="#FFFFFF" cx="28.0847458" cy="26.0847458" r="1.08474576"></circle>
            <circle id="Oval" fill="#FFFFFF" cx="48.0847458" cy="45.0847458" r="1.08474576"></circle>
            <circle id="Oval" fill="#FFFFFF" cx="40.0847458" cy="47.0847458" r="1.08474576"></circle>
            <polygon id="Shape" fill="#25AE88" points="56.2277966 54.6939661 54.6939661 56.2277966 48.5575593 53.1601356 53.1601356 48.5575593"></polygon>
        </g>
    </g>
</svg>