<?xml version="1.0" encoding="utf-8"?>
<!-- Generator: Adobe Illustrator 16.0.0, SVG Export Plug-In . SVG Version: 6.00 Build 0)  -->
<!DOCTYPE svg PUBLIC "-//W3C//DTD SVG 1.1//EN" "http://www.w3.org/Graphics/SVG/1.1/DTD/svg11.dtd">
<svg version="1.1" id="Layer_1" xmlns="http://www.w3.org/2000/svg" xmlns:xlink="http://www.w3.org/1999/xlink" x="0px" y="0px"
	 width="96px" height="96px" viewBox="0 0 96 96" enable-background="new 0 0 96 96" xml:space="preserve">
<rect fill="#F7F7F7" width="96" height="96"/>
<g>
	<defs>
		<rect id="SVGID_1_" width="96" height="96"/>
	</defs>
	<clipPath id="SVGID_2_">
		<use xlink:href="#SVGID_1_"  overflow="visible"/>
	</clipPath>
</g>
<g>
	<defs>
		<rect id="SVGID_3_" width="96" height="96"/>
	</defs>
	<clipPath id="SVGID_4_">
		<use xlink:href="#SVGID_3_"  overflow="visible"/>
	</clipPath>
	<path clip-path="url(#SVGID_4_)" fill="#A8C4C6" d="M25,2c0,38.108,30.892,69,69,69v23H25V2z"/>
	<path clip-path="url(#SVGID_4_)" fill="#2D4D68" d="M94,96H25c-1.104,0-2-0.896-2-2V2c0-1.104,0.896-2,2-2s2,0.896,2,2
		c0,36.944,30.056,67,67,67c1.104,0,2,0.896,2,2v23C96,95.104,95.104,96,94,96 M27,92h65V72.972
		c-30.046-0.835-55.486-20.43-65-47.462V92z"/>
	<rect x="2" y="2" clip-path="url(#SVGID_4_)" fill="#A8C4C6" width="23" height="92"/>
	<path clip-path="url(#SVGID_4_)" fill="#2D4D68" d="M25,96H2c-1.104,0-2-0.896-2-2V2c0-1.104,0.896-2,2-2h23c1.104,0,2,0.896,2,2
		v92C27,95.104,26.104,96,25,96 M4,92h19V4H4V92z"/>
	<path clip-path="url(#SVGID_4_)" fill="#AAE1ED" d="M81,94c0-30.928-25.072-56-56-56v28c15.464,0,28,12.536,28,28H81z"/>
	<path clip-path="url(#SVGID_4_)" fill="#2D4D68" d="M81,96H53c-1.104,0-2-0.896-2-2c0-14.336-11.664-26-26-26c-1.104,0-2-0.896-2-2
		V38c0-1.104,0.896-2,2-2c31.982,0,58,26.019,58,58C83,95.104,82.104,96,81,96 M54.934,92h24.03
		C77.934,63.809,55.191,41.067,27,40.037v24.029C41.952,65.055,53.944,77.049,54.934,92"/>
	<path clip-path="url(#SVGID_4_)" fill="#5AADE0" d="M67.934,94c0-23.711-19.223-42.933-42.933-42.933V66c15.464,0,28,12.536,28,28
		H67.934z"/>
	<path clip-path="url(#SVGID_4_)" fill="#2D4D68" d="M67.934,96H53c-1.104,0-2-0.896-2-2c0-14.336-11.664-26-26-26
		c-1.104,0-2-0.896-2-2V51.067c0-1.105,0.896-2,2-2c24.777,0,44.934,20.156,44.934,44.933C69.934,95.104,69.037,96,67.934,96
		 M54.934,92h10.952C64.87,71.018,47.982,54.13,27,53.115v10.951C41.952,65.055,53.944,77.049,54.934,92"/>
	<path clip-path="url(#SVGID_4_)" fill="#FFFFFF" d="M44,84c0,5.523,4.477,10,10,10s10-4.477,10-10s-4.477-10-10-10S44,78.477,44,84
		"/>
	<path clip-path="url(#SVGID_4_)" fill="#2D4D68" d="M54,96c-6.617,0-12-5.383-12-12s5.383-12,12-12s12,5.383,12,12S60.617,96,54,96
		 M54,76c-4.411,0-8,3.589-8,8s3.589,8,8,8s8-3.589,8-8S58.411,76,54,76"/>
	<path clip-path="url(#SVGID_4_)" fill="#FFFFFF" d="M64,84c0,5.523,4.477,10,10,10s10-4.477,10-10s-4.477-10-10-10S64,78.477,64,84
		"/>
	<path clip-path="url(#SVGID_4_)" fill="#2D4D68" d="M74,96c-6.617,0-12-5.383-12-12s5.383-12,12-12s12,5.383,12,12S80.617,96,74,96
		 M74,76c-4.411,0-8,3.589-8,8s3.589,8,8,8s8-3.589,8-8S78.411,76,74,76"/>
	<path clip-path="url(#SVGID_4_)" fill="#FFFFFF" d="M54,94h20c0-5.523-4.477-10-10-10S54,88.477,54,94"/>
	<path clip-path="url(#SVGID_4_)" fill="#2D4D68" d="M74,96H54c-1.104,0-2-0.896-2-2c0-6.617,5.383-12,12-12s12,5.383,12,12
		C76,95.104,75.104,96,74,96 M56.253,92h15.494c-0.891-3.447-4.026-6-7.747-6S57.144,88.553,56.253,92"/>
	<path clip-path="url(#SVGID_4_)" fill="#FFFFFF" d="M74,94h20c0-5.523-4.477-10-10-10S74,88.477,74,94"/>
	<path clip-path="url(#SVGID_4_)" fill="#2D4D68" d="M94,96H74c-1.104,0-2-0.896-2-2c0-6.617,5.383-12,12-12s12,5.383,12,12
		C96,95.104,95.104,96,94,96 M76.253,92h15.494c-0.891-3.447-4.026-6-7.747-6S77.144,88.553,76.253,92"/>
	<path clip-path="url(#SVGID_4_)" fill="#FFFFFF" d="M34,94h20c0-5.523-4.477-10-10-10C38.477,84,34,88.477,34,94"/>
	<path clip-path="url(#SVGID_4_)" fill="#2D4D68" d="M54,96H34c-1.104,0-2-0.896-2-2c0-6.617,5.383-12,12-12s12,5.383,12,12
		C56,95.104,55.104,96,54,96 M36.253,92h15.494c-0.891-3.447-4.026-6-7.747-6C40.279,86,37.144,88.553,36.253,92"/>
</g>
</svg>
