<?xml version="1.0" encoding="utf-8"?>
<!-- Generator: Adobe Illustrator 16.0.0, SVG Export Plug-In . SVG Version: 6.00 Build 0)  -->
<!DOCTYPE svg PUBLIC "-//W3C//DTD SVG 1.1//EN" "http://www.w3.org/Graphics/SVG/1.1/DTD/svg11.dtd">
<svg version="1.1" id="Layer_1" xmlns="http://www.w3.org/2000/svg" xmlns:xlink="http://www.w3.org/1999/xlink" x="0px" y="0px"
	 width="96px" height="96px" viewBox="0 0 96 96" enable-background="new 0 0 96 96" xml:space="preserve">
<rect fill="#F7F7F7" width="96" height="96"/>
<g>
	<defs>
		<rect id="SVGID_1_" width="96" height="96"/>
	</defs>
	<clipPath id="SVGID_2_">
		<use xlink:href="#SVGID_1_"  overflow="visible"/>
	</clipPath>
</g>
<g>
	<defs>
		<rect id="SVGID_3_" width="96" height="96"/>
	</defs>
	<clipPath id="SVGID_4_">
		<use xlink:href="#SVGID_3_"  overflow="visible"/>
	</clipPath>
	<path clip-path="url(#SVGID_4_)" fill="#83EF60" d="M83.222,72.535l4.243-4.242c1.952-1.952,1.952-5.118,0-7.071
		c-1.953-1.952-5.119-1.952-7.071,0l-4.243,4.243c-1.952,1.953-1.952,5.117,0,7.07C78.104,74.488,81.269,74.488,83.222,72.535"/>
	<path clip-path="url(#SVGID_4_)" fill="#2D4D68" d="M79.687,76c-1.87,0-3.628-0.729-4.95-2.051c-1.322-1.321-2.05-3.079-2.05-4.949
		s0.728-3.628,2.051-4.949l4.242-4.243c2.729-2.729,7.17-2.729,9.898,0c2.729,2.729,2.729,7.17,0.001,9.899l-4.243,4.242
		C83.314,75.271,81.557,76,79.687,76 M83.93,61.759c-0.77,0-1.537,0.293-2.122,0.877l-4.242,4.243
		c-0.567,0.566-0.879,1.32-0.879,2.121s0.312,1.555,0.879,2.121c1.134,1.133,3.108,1.133,4.242,0l4.242-4.242
		c1.17-1.17,1.17-3.073,0-4.243C85.465,62.051,84.697,61.759,83.93,61.759"/>
	<path clip-path="url(#SVGID_4_)" fill="#83EF60" d="M18.293,37.536l4.243-4.243c1.952-1.952,1.952-5.118,0-7.071
		c-1.953-1.952-5.119-1.952-7.071,0l-4.243,4.243c-1.953,1.953-1.953,5.118,0,7.071C13.175,39.488,16.34,39.488,18.293,37.536"/>
	<path clip-path="url(#SVGID_4_)" fill="#2D4D68" d="M14.757,41c-1.87,0-3.628-0.728-4.95-2.051C8.485,37.628,7.757,35.87,7.757,34
		c0-1.87,0.728-3.628,2.051-4.949l4.242-4.243c2.73-2.729,7.17-2.729,9.9,0c2.729,2.729,2.729,7.17,0,9.899l-4.242,4.242
		C18.385,40.272,16.627,41,14.757,41 M19,26.759c-0.768,0-1.537,0.292-2.122,0.877l-4.242,4.243
		c-0.567,0.567-0.879,1.32-0.879,2.121c0,0.801,0.312,1.555,0.879,2.121c1.134,1.133,3.11,1.133,4.242,0h0.001l4.243-4.242
		c1.169-1.17,1.169-3.073-0.001-4.243C20.537,27.051,19.769,26.759,19,26.759"/>
	<path clip-path="url(#SVGID_4_)" fill="#83EF60" d="M87.535,41.464l-4.242-4.243c-1.952-1.952-5.118-1.952-7.071,0
		c-1.952,1.953-1.952,5.119,0,7.071l4.243,4.243c1.953,1.953,5.117,1.953,7.07,0C89.488,46.583,89.488,43.417,87.535,41.464"/>
	<path clip-path="url(#SVGID_4_)" fill="#2D4D68" d="M84,52c-1.87,0-3.628-0.729-4.951-2.051l-4.241-4.242
		c-2.729-2.729-2.729-7.17,0-9.899c2.729-2.729,7.17-2.729,9.899,0l4.242,4.243C90.272,41.373,91,43.13,91,45
		c0,1.87-0.728,3.628-2.051,4.949C87.628,51.271,85.87,52,84,52 M79.757,37.759c-0.768,0-1.536,0.292-2.121,0.877
		c-1.17,1.17-1.17,3.073,0.001,4.243l4.241,4.242c1.135,1.133,3.11,1.133,4.243,0C86.688,46.555,87,45.801,87,45
		c0-0.801-0.312-1.554-0.879-2.121l-4.242-4.243C81.294,38.051,80.525,37.759,79.757,37.759"/>
	<path clip-path="url(#SVGID_4_)" fill="#83EF60" d="M22,67v-6c0-2.761-2.239-5-5-5s-5,2.239-5,5v6c0,2.761,2.239,5,5,5
		S22,69.761,22,67"/>
	<path clip-path="url(#SVGID_4_)" fill="#2D4D68" d="M17,74c-3.86,0-7-3.141-7-7v-6c0-3.859,3.14-7,7-7s7,3.141,7,7v6
		C24,70.859,20.86,74,17,74 M17,58c-1.654,0-3,1.346-3,3v6c0,1.654,1.346,3,3,3s3-1.346,3-3v-6C20,59.346,18.654,58,17,58"/>
</g>
<g>
	<defs>
		<path id="SVGID_5_" d="M32,68c0,8.836,7.163,16,16,16s16-7.164,16-16c0-8.837-7.163-66-16-66S32,59.163,32,68"/>
	</defs>
	<clipPath id="SVGID_6_">
		<use xlink:href="#SVGID_5_"  overflow="visible"/>
	</clipPath>
	<path clip-path="url(#SVGID_6_)" fill="#32AA77" d="M32,68c0,8.837,7.163,16,16,16s16-7.163,16-16S56.837,2,48,2S32,59.163,32,68"
		/>
	<path clip-path="url(#SVGID_6_)" fill="#83EF60" d="M24,56c0,8.837,7.163,16,16,16s16-7.163,16-16s-7.163-66-16-66S24,47.163,24,56
		"/>
</g>
<g>
	<defs>
		<rect id="SVGID_7_" width="96" height="96"/>
	</defs>
	<clipPath id="SVGID_8_">
		<use xlink:href="#SVGID_7_"  overflow="visible"/>
	</clipPath>
	<path clip-path="url(#SVGID_8_)" fill="#2D4D68" d="M48,86c-9.925,0-18-8.075-18-18c0-4.723,1.839-21.361,4.721-36.684
		C39.941,3.56,44.56,0,48,0c3.44,0,8.059,3.56,13.279,31.316C64.161,46.639,66,63.277,66,68C66,77.925,57.925,86,48,86 M48,4
		c-0.041,0-4.215,0.764-9.348,28.056C35.855,46.925,34,63.537,34,68c0,7.72,6.28,14,14,14c7.72,0,14-6.28,14-14
		c0-4.463-1.855-21.075-4.652-35.944C52.215,4.764,48.041,4,48,4"/>
	<path clip-path="url(#SVGID_8_)" fill="#9B8772" d="M2,94c5.523,0,10-4.477,10-10h10c0,5.523,4.477,10,10,10H22H12H2z"/>
	<path clip-path="url(#SVGID_8_)" fill="#2D4D68" d="M32,96H2c-1.105,0-2-0.896-2-2s0.895-2,2-2c4.411,0,8-3.589,8-8
		c0-1.104,0.895-2,2-2h10c1.104,0,2,0.896,2,2c0,4.411,3.589,8,8,8c1.104,0,2,0.896,2,2S33.104,96,32,96 M10.937,92h12.126
		c-1.481-1.653-2.512-3.719-2.897-6h-6.333C13.449,88.281,12.418,90.347,10.937,92"/>
	<path clip-path="url(#SVGID_8_)" fill="#9B8772" d="M33,94c5.523,0,10-4.477,10-10h10c0,5.523,4.477,10,10,10H53H43H33z"/>
	<path clip-path="url(#SVGID_8_)" fill="#2D4D68" d="M63,96H33c-1.105,0-2-0.896-2-2s0.895-2,2-2c4.411,0,8-3.589,8-8
		c0-1.104,0.895-2,2-2h10c1.104,0,2,0.896,2,2c0,4.411,3.589,8,8,8c1.104,0,2,0.896,2,2S64.104,96,63,96 M41.937,92h12.126
		c-1.481-1.653-2.513-3.719-2.897-6h-6.333C44.449,88.281,43.418,90.347,41.937,92"/>
	<path clip-path="url(#SVGID_8_)" fill="#9B8772" d="M64,94c5.523,0,10-4.477,10-10h10c0,5.523,4.477,10,10,10H84H74H64z"/>
	<path clip-path="url(#SVGID_8_)" fill="#2D4D68" d="M94,96H64c-1.105,0-2-0.896-2-2s0.895-2,2-2c4.411,0,8-3.589,8-8
		c0-1.104,0.895-2,2-2h10c1.104,0,2,0.896,2,2c0,4.411,3.589,8,8,8c1.104,0,2,0.896,2,2S95.104,96,94,96 M72.937,92h12.127
		c-1.481-1.653-2.513-3.719-2.897-6h-6.333C75.449,88.281,74.418,90.347,72.937,92"/>
</g>
</svg>
