<?xml version="1.0" encoding="utf-8"?>
<!-- Generator: Adobe Illustrator 16.0.0, SVG Export Plug-In . SVG Version: 6.00 Build 0)  -->
<!DOCTYPE svg PUBLIC "-//W3C//DTD SVG 1.1//EN" "http://www.w3.org/Graphics/SVG/1.1/DTD/svg11.dtd">
<svg version="1.1" id="Layer_1" xmlns="http://www.w3.org/2000/svg" xmlns:xlink="http://www.w3.org/1999/xlink" x="0px" y="0px"
	 width="96px" height="96px" viewBox="0 0 96 96" enable-background="new 0 0 96 96" xml:space="preserve">
<rect fill="#F7F7F7" width="96" height="96"/>
<g>
	<defs>
		<rect id="SVGID_1_" width="96" height="96"/>
	</defs>
	<clipPath id="SVGID_2_">
		<use xlink:href="#SVGID_1_"  overflow="visible"/>
	</clipPath>
</g>
<g>
	<defs>
		<rect id="SVGID_3_" width="96" height="96"/>
	</defs>
	<clipPath id="SVGID_4_">
		<use xlink:href="#SVGID_3_"  overflow="visible"/>
	</clipPath>
	<path clip-path="url(#SVGID_4_)" fill="#567B8E" d="M94,60v24c0,5.523-4.477,10-10,10H12C6.477,94,2,89.523,2,84V59l46,14v10h25
		L94,60z"/>
	<path clip-path="url(#SVGID_4_)" fill="#2D4D68" d="M84,96H12C5.383,96,0,90.617,0,84V59c0-0.634,0.3-1.229,0.81-1.607
		c0.509-0.377,1.165-0.492,1.773-0.306l46,14C49.424,71.343,50,72.12,50,73v8h22.118l20.405-22.349
		c0.557-0.609,1.431-0.816,2.199-0.516C95.493,58.434,96,59.175,96,60v24C96,90.617,90.617,96,84,96 M4,61.699V84
		c0,4.411,3.589,8,8,8h72c4.411,0,8-3.589,8-8V65.156L74.477,84.349C74.098,84.764,73.562,85,73,85H48c-1.104,0-2-0.896-2-2v-8.519
		L4,61.699z"/>
	<polygon clip-path="url(#SVGID_4_)" fill="#AAE1ED" points="48,83 73,83 94,60 83,48 71,48 48,73 	"/>
	<path clip-path="url(#SVGID_4_)" fill="#2D4D68" d="M73,85H48c-1.104,0-2-0.896-2-2V73c0-0.502,0.188-0.985,0.528-1.354l23-25
		C69.907,46.234,70.44,46,71,46h12c0.561,0,1.096,0.235,1.474,0.648l11,12c0.7,0.764,0.701,1.936,0.003,2.7l-21,23
		C74.098,84.764,73.562,85,73,85 M50,81h22.118L91.29,60.003L82.12,50H71.877L50,73.78V81z"/>
	<polygon clip-path="url(#SVGID_4_)" fill="#567B8E" points="73,83 73,94 52,94 48,83 	"/>
	<path clip-path="url(#SVGID_4_)" fill="#2D4D68" d="M73,96H52c-0.841,0-1.592-0.526-1.879-1.316l-4-11
		c-0.223-0.613-0.133-1.297,0.241-1.831S47.348,81,48,81h25c1.104,0,2,0.896,2,2v11C75,95.104,74.104,96,73,96 M53.401,92H71v-7
		H50.855L53.401,92z"/>
	<polygon clip-path="url(#SVGID_4_)" fill="#A8C4C6" points="94,25 71,37 37,12 49,2 70,2 	"/>
	<path clip-path="url(#SVGID_4_)" fill="#2D4D68" d="M71,39c-0.419,0-0.835-0.131-1.185-0.389l-34-25
		c-0.495-0.364-0.796-0.937-0.814-1.551c-0.019-0.614,0.246-1.203,0.719-1.596l12-10.001C48.079,0.165,48.532,0,49,0h21
		c0.516,0,1.012,0.199,1.384,0.555l24,23c0.466,0.447,0.688,1.089,0.597,1.727c-0.091,0.638-0.484,1.193-1.056,1.491l-23,12
		C71.634,38.924,71.316,39,71,39 M40.242,11.901L71.181,34.65l19.424-10.135L69.196,4H49.725L40.242,11.901z"/>
	<polygon clip-path="url(#SVGID_4_)" fill="#567B8E" points="94,60 94,26 71,37 71,48 83,48 	"/>
	<path clip-path="url(#SVGID_4_)" fill="#2D4D68" d="M94,62c-0.55,0-1.088-0.227-1.474-0.648L82.12,50H71c-1.104,0-2-0.896-2-2V37
		c0-0.771,0.442-1.472,1.137-1.805l23-11c0.619-0.296,1.348-0.254,1.93,0.113C95.647,24.674,96,25.313,96,26v34
		c0,0.825-0.506,1.565-1.275,1.864C94.489,61.956,94.244,62,94,62 M73,46h10c0.561,0,1.096,0.235,1.474,0.648L92,54.858V29.174
		l-19,9.087V46z"/>
	<polygon clip-path="url(#SVGID_4_)" fill="#5AADE0" points="2,59 37,12 71,37 71,48 48,73 	"/>
	<path clip-path="url(#SVGID_4_)" fill="#2D4D68" d="M48,75c-0.195,0-0.391-0.028-0.583-0.087l-46-14
		c-0.622-0.189-1.114-0.67-1.317-1.288c-0.203-0.619-0.093-1.298,0.296-1.819l35-47c0.657-0.883,1.904-1.069,2.788-0.417l34,25
		C72.697,35.766,73,36.364,73,37v11c0,0.502-0.188,0.985-0.529,1.354l-22.999,25C49.087,74.772,48.55,75,48,75 M5.302,57.914
		l42.077,12.807L69,47.22v-9.208L37.417,14.789L5.302,57.914z"/>
</g>
</svg>
