<?xml version="1.0" encoding="utf-8"?>
<!-- Generator: Adobe Illustrator 16.0.0, SVG Export Plug-In . SVG Version: 6.00 Build 0)  -->
<!DOCTYPE svg PUBLIC "-//W3C//DTD SVG 1.1//EN" "http://www.w3.org/Graphics/SVG/1.1/DTD/svg11.dtd">
<svg version="1.1" id="Layer_1" xmlns="http://www.w3.org/2000/svg" xmlns:xlink="http://www.w3.org/1999/xlink" x="0px" y="0px"
	 width="96px" height="96px" viewBox="0 0 96 96" enable-background="new 0 0 96 96" xml:space="preserve">
<rect fill="#F7F7F7" width="96" height="96"/>
<g>
	<defs>
		<rect id="SVGID_1_" width="96" height="96"/>
	</defs>
	<clipPath id="SVGID_2_">
		<use xlink:href="#SVGID_1_"  overflow="visible"/>
	</clipPath>
</g>
<g>
	<defs>
		<path id="SVGID_3_" d="M51.692,58v28.174c0,4.323-3.503,7.826-7.825,7.826h43.825c-4.321,0-7.825-3.503-7.825-7.826V58H51.692z"/>
	</defs>
	<clipPath id="SVGID_4_">
		<use xlink:href="#SVGID_3_"  overflow="visible"/>
	</clipPath>
	<path clip-path="url(#SVGID_4_)" fill="#EBF4F7" d="M87.692,94c-4.321,0-7.825-3.504-7.825-7.826V58H51.692v28.174
		c0,4.322-3.504,7.826-7.826,7.826H87.692z"/>
	<rect x="69.867" y="32" clip-path="url(#SVGID_4_)" fill="#A8C4C6" width="81" height="73"/>
</g>
<g>
	<defs>
		<rect id="SVGID_5_" width="96" height="96"/>
	</defs>
	<clipPath id="SVGID_6_">
		<use xlink:href="#SVGID_5_"  overflow="visible"/>
	</clipPath>
	<path clip-path="url(#SVGID_6_)" fill="#2D4D68" d="M87.693,96H43.867c-1.105,0-2-0.896-2-2s0.895-2,2-2
		c3.213,0,5.827-2.613,5.827-5.826V58c0-1.104,0.895-2,2-2h28.174c1.104,0,2,0.896,2,2v28.174c0,3.213,2.612,5.826,5.826,5.826
		c1.104,0,2,0.896,2,2S88.797,96,87.693,96 M51.774,92h28.011c-1.205-1.631-1.918-3.646-1.918-5.826V60H53.693v26.174
		C53.693,88.354,52.979,90.369,51.774,92"/>
	<path clip-path="url(#SVGID_6_)" fill="#FFFFFF" d="M51.524,2h-9.657c-4.432,0-8.19,2.882-9.502,6.875
		C31.763,10.705,30.136,12,28.209,12c-5.03,0-9.538,3.566-10.24,8.547C17.1,26.715,21.866,32,27.867,32h10
		c4.418,0,8.167-2.865,9.49-6.839C47.972,23.312,49.613,22,51.562,22h0.306c5.743,0,10.354-4.841,9.978-10.666
		C61.501,6.019,56.851,2,51.524,2"/>
	<path clip-path="url(#SVGID_6_)" fill="#2D4D68" d="M37.867,34h-10c-3.476,0-6.778-1.506-9.061-4.132
		c-2.28-2.623-3.307-6.123-2.817-9.6C16.813,14.414,22.067,10,28.208,10c1.021,0,1.907-0.687,2.256-1.75
		C32.087,3.315,36.668,0,41.867,0h9.657c6.5,0,11.91,4.922,12.317,11.205c0.218,3.358-0.925,6.555-3.218,9
		C58.362,22.617,55.171,24,51.867,24h-0.306c-1.039,0-1.944,0.704-2.307,1.792C47.621,30.702,43.043,34,37.867,34 M41.867,4
		c-3.466,0-6.521,2.21-7.602,5.499C33.38,12.191,30.947,14,28.208,14c-4.16,0-7.711,2.935-8.259,6.826
		c-0.333,2.364,0.333,4.644,1.875,6.419C23.347,28.996,25.55,30,27.867,30h10c3.452,0,6.503-2.199,7.593-5.471
		C46.362,21.82,48.813,20,51.562,20h0.306c2.234,0,4.309-0.898,5.838-2.53c1.527-1.631,2.29-3.763,2.145-6.006
		C59.578,7.278,55.922,4,51.523,4H41.867z"/>
	<path clip-path="url(#SVGID_6_)" fill="#FFFFFF" d="M83.844,22h-7.741c-3.551,0-6.563,2.31-7.616,5.51
		c-0.481,1.467-1.786,2.505-3.33,2.505c-4.031,0-7.646,2.858-8.208,6.85c-0.695,4.945,3.124,9.18,7.934,9.18h8.015
		c3.542,0,6.547-2.296,7.607-5.481c0.493-1.482,1.808-2.534,3.37-2.534h0.244c4.604,0,8.301-3.88,7.997-8.548
		C91.841,25.221,88.112,22,83.844,22"/>
	<path clip-path="url(#SVGID_6_)" fill="#2D4D68" d="M72.897,48.045h-8.016c-2.901,0-5.657-1.256-7.562-3.448
		c-1.903-2.19-2.761-5.11-2.353-8.011c0.689-4.886,5.069-8.571,10.188-8.571c0.644,0,1.206-0.443,1.431-1.13
		C67.941,22.767,71.765,20,76.103,20h7.741c5.418,0,9.929,4.108,10.269,9.352c0.181,2.802-0.772,5.47-2.687,7.511
		c-1.886,2.013-4.55,3.167-7.308,3.167h-0.244c-0.659,0-1.237,0.458-1.473,1.166C81.038,45.292,77.218,48.045,72.897,48.045
		 M76.103,24c-2.605,0-4.902,1.662-5.716,4.135c-0.763,2.321-2.864,3.88-5.23,3.88c-3.139,0-5.815,2.205-6.228,5.129
		c-0.25,1.78,0.25,3.495,1.41,4.829c1.145,1.317,2.8,2.072,4.543,2.072h8.016c2.596,0,4.89-1.652,5.709-4.113
		c0.776-2.334,2.894-3.902,5.268-3.902h0.244c1.681,0,3.24-0.676,4.39-1.903c1.149-1.225,1.721-2.829,1.613-4.516
		C89.916,26.464,87.16,24,83.844,24H76.103z"/>
</g>
<g>
	<defs>
		<path id="SVGID_7_" d="M15.867,48v36c0,5.523-4.478,10-10,10h56c-5.523,0-10-4.477-10-10V48H15.867z"/>
	</defs>
	<clipPath id="SVGID_8_">
		<use xlink:href="#SVGID_7_"  overflow="visible"/>
	</clipPath>
	<path clip-path="url(#SVGID_8_)" fill="#EBF4F7" d="M61.867,94c-5.523,0-10-4.477-10-10V48h-36v36c0,5.523-4.477,10-10,10H61.867z"
		/>
	<rect x="41.867" y="32" clip-path="url(#SVGID_8_)" fill="#A8C4C6" width="81" height="73"/>
</g>
<g>
	<defs>
		<rect id="SVGID_9_" width="96" height="96"/>
	</defs>
	<clipPath id="SVGID_10_">
		<use xlink:href="#SVGID_9_"  overflow="visible"/>
	</clipPath>
	<path clip-path="url(#SVGID_10_)" fill="#2D4D68" d="M61.866,96h-56c-1.104,0-2-0.896-2-2s0.896-2,2-2c4.412,0,8-3.589,8-8V48
		c0-1.104,0.896-2,2-2h36c1.105,0,2,0.896,2,2v36c0,4.411,3.589,8,8,8c1.105,0,2,0.896,2,2S62.972,96,61.866,96 M14.803,92h38.127
		c-1.904-2.125-3.064-4.93-3.064-8V50h-32v34C17.866,87.07,16.707,89.875,14.803,92"/>
</g>
</svg>
