<?xml version="1.0" encoding="utf-8"?>
<!-- Generator: Adobe Illustrator 16.0.0, SVG Export Plug-In . SVG Version: 6.00 Build 0)  -->
<!DOCTYPE svg PUBLIC "-//W3C//DTD SVG 1.1//EN" "http://www.w3.org/Graphics/SVG/1.1/DTD/svg11.dtd">
<svg version="1.1" id="Layer_1" xmlns="http://www.w3.org/2000/svg" xmlns:xlink="http://www.w3.org/1999/xlink" x="0px" y="0px"
	 width="96px" height="96px" viewBox="0 0 96 96" enable-background="new 0 0 96 96" xml:space="preserve">
<rect fill="#F7F7F7" width="96" height="96"/>
<g>
	<defs>
		<rect id="SVGID_1_" width="96" height="96"/>
	</defs>
	<clipPath id="SVGID_2_">
		<use xlink:href="#SVGID_1_"  overflow="visible"/>
	</clipPath>
</g>
<g>
	<defs>
		<rect id="SVGID_3_" width="96" height="96"/>
	</defs>
	<clipPath id="SVGID_4_">
		<use xlink:href="#SVGID_3_"  overflow="visible"/>
	</clipPath>
	<path clip-path="url(#SVGID_4_)" fill="#567B8E" d="M13,84V26c0-5.523,4.477-10,10-10h50c5.523,0,10,4.477,10,10v58
		c0,5.523-4.477,10-10,10H23C17.477,94,13,89.523,13,84"/>
	<path clip-path="url(#SVGID_4_)" fill="#2D4D68" d="M73,96H23c-6.617,0-12-5.383-12-12V26c0-6.617,5.383-12,12-12h50
		c6.617,0,12,5.383,12,12v58C85,90.617,79.617,96,73,96 M23,18c-4.411,0-8,3.589-8,8v58c0,4.411,3.589,8,8,8h50c4.411,0,8-3.589,8-8
		V26c0-4.411-3.589-8-8-8H23z"/>
	<path clip-path="url(#SVGID_4_)" fill="#A8C4C6" d="M40,81V63c0-2.761-2.239-5-5-5c-2.761,0-5,2.239-5,5v18c0,2.761,2.239,5,5,5
		C37.761,86,40,83.761,40,81"/>
	<path clip-path="url(#SVGID_4_)" fill="#2D4D68" d="M35,88c-3.859,0-7-3.14-7-7V63c0-3.86,3.141-7,7-7s7,3.14,7,7v18
		C42,84.86,38.859,88,35,88 M35,60c-1.654,0-3,1.346-3,3v18c0,1.654,1.346,3,3,3s3-1.346,3-3V63C38,61.346,36.654,60,35,60"/>
	<path clip-path="url(#SVGID_4_)" fill="#A8C4C6" d="M66,81V63c0-2.761-2.239-5-5-5s-5,2.239-5,5v18c0,2.761,2.239,5,5,5
		S66,83.761,66,81"/>
	<path clip-path="url(#SVGID_4_)" fill="#2D4D68" d="M61,88c-3.859,0-7-3.14-7-7V63c0-3.86,3.141-7,7-7s7,3.14,7,7v18
		C68,84.86,64.859,88,61,88 M61,60c-1.654,0-3,1.346-3,3v18c0,1.654,1.346,3,3,3s3-1.346,3-3V63C64,61.346,62.654,60,61,60"/>
	<path clip-path="url(#SVGID_4_)" fill="#83EF60" d="M13,43c0,2.761,2.239,5,5,5s5-2.239,5-5s2.239-5,5-5s5,2.239,5,5s2.239,5,5,5
		s5-2.239,5-5s2.239-5,5-5c2.761,0,5,2.239,5,5s2.239,5,5,5s5-2.239,5-5s2.239-5,5-5s5,2.239,5,5s2.239,5,5,5s5-2.239,5-5V28H13V43z
		"/>
	<path clip-path="url(#SVGID_4_)" fill="#2D4D68" d="M78,50c-3.859,0-7-3.14-7-7c0-1.654-1.346-3-3-3s-3,1.346-3,3
		c0,3.86-3.141,7-7,7s-7-3.14-7-7c0-1.654-1.346-3-3-3c-1.654,0-3,1.346-3,3c0,3.86-3.141,7-7,7s-7-3.14-7-7c0-1.654-1.346-3-3-3
		s-3,1.346-3,3c0,3.86-3.141,7-7,7s-7-3.14-7-7V28c0-1.104,0.896-2,2-2h70c1.104,0,2,0.896,2,2v15C85,46.86,81.859,50,78,50 M68,36
		c3.859,0,7,3.14,7,7c0,1.654,1.346,3,3,3s3-1.346,3-3V30H15v13c0,1.654,1.346,3,3,3s3-1.346,3-3c0-3.86,3.141-7,7-7s7,3.14,7,7
		c0,1.654,1.346,3,3,3s3-1.346,3-3c0-3.86,3.141-7,7-7c3.859,0,7,3.14,7,7c0,1.654,1.346,3,3,3s3-1.346,3-3
		C61,39.14,64.141,36,68,36"/>
	<path clip-path="url(#SVGID_4_)" fill="#A8C4C6" d="M38,12c0,5.523,4.477,10,10,10c5.523,0,10-4.477,10-10S53.523,2,48,2
		C42.477,2,38,6.477,38,12"/>
	<path clip-path="url(#SVGID_4_)" fill="#2D4D68" d="M48,24c-6.617,0-12-5.383-12-12S41.383,0,48,0s12,5.383,12,12S54.617,24,48,24
		 M48,4c-4.411,0-8,3.589-8,8s3.589,8,8,8s8-3.589,8-8S52.411,4,48,4"/>
</g>
<g>
	<defs>
		<path id="SVGID_5_" d="M12,12C6.477,12,2,16.477,2,22s4.477,10,10,10h72c5.523,0,10-4.477,10-10s-4.477-10-10-10H12z"/>
	</defs>
	<clipPath id="SVGID_6_">
		<use xlink:href="#SVGID_5_"  overflow="visible"/>
	</clipPath>
	<path clip-path="url(#SVGID_6_)" fill="#567B8E" d="M2,22L2,22c0-5.523,4.477-10,10-10h72c5.523,0,10,4.477,10,10s-4.477,10-10,10
		H12C6.477,32,2,27.523,2,22"/>
	<path clip-path="url(#SVGID_6_)" fill="#A8C4C6" d="M2,12L2,12C2,6.477,6.477,2,12,2h72c5.523,0,10,4.477,10,10s-4.477,10-10,10H12
		C6.477,22,2,17.523,2,12"/>
</g>
<g>
	<defs>
		<rect id="SVGID_7_" width="96" height="96"/>
	</defs>
	<clipPath id="SVGID_8_">
		<use xlink:href="#SVGID_7_"  overflow="visible"/>
	</clipPath>
	<path clip-path="url(#SVGID_8_)" fill="#2D4D68" d="M84,34H12C5.383,34,0,28.617,0,22s5.383-12,12-12h72c6.617,0,12,5.383,12,12
		S90.617,34,84,34 M12,14c-4.411,0-8,3.589-8,8s3.589,8,8,8h72c4.411,0,8-3.589,8-8s-3.589-8-8-8H12z"/>
</g>
</svg>
