<svg id="Layer_1" data-name="Layer 1" xmlns="http://www.w3.org/2000/svg" xmlns:xlink="http://www.w3.org/1999/xlink" viewBox="0 0 64 64"><defs><style>.cls-1{fill:#efcc00;}.cls-2{fill:url(#linear-gradient);}.cls-3{fill:url(#linear-gradient-2);}.cls-4{fill:#0baeff;}</style><linearGradient id="linear-gradient" x1="46.72" y1="52.39" x2="25.63" y2="25.08" gradientTransform="matrix(-1, 0, 0, 1, 65.97, 0)" gradientUnits="userSpaceOnUse"><stop offset="0" stop-color="#f2f2f2"/><stop offset="1" stop-color="#cfcfcf"/></linearGradient><linearGradient id="linear-gradient-2" x1="-34.14" y1="105.42" x2="-22.53" y2="123.07" gradientTransform="matrix(0, -1, -1, 0, 157.69, 7.04)" gradientUnits="userSpaceOnUse"><stop offset="0.02" stop-color="#fff"/><stop offset="1" stop-color="#fff" stop-opacity="0"/></linearGradient></defs><title>smiley_Artboard 25</title><path class="cls-1" d="M50,20.71A13.88,13.88,0,0,1,37.86,2.77.6.6,0,0,0,37,2.08,13.88,13.88,0,1,0,55.92,21a.6.6,0,0,0-.69-.89A13.91,13.91,0,0,1,50,20.71Z"/><path class="cls-2" d="M23.66,15.9a17.49,17.49,0,0,1,15.47,9.32A13.75,13.75,0,1,1,46,50.84l-22.39.06a17.5,17.5,0,0,1,0-35Z"/><circle class="cls-3" cx="46.05" cy="37.09" r="13.75" transform="translate(-2.06 71.46) rotate(-74.39)"/><polygon class="cls-1" points="33.13 42.35 31 54.6 35.26 54.6 33.13 63.65 43.25 50.87 38.46 50.87 42.72 42.35 33.13 42.35"/><path class="cls-4" d="M28.85,59.28a3.72,3.72,0,1,1-7.44,0c0-3.26,3-6.28,3.72-6.28S28.85,56,28.85,59.28Z"/></svg>