<svg id="Layer_1" data-name="Layer 1" xmlns="http://www.w3.org/2000/svg" xmlns:xlink="http://www.w3.org/1999/xlink" viewBox="0 0 64 64"><defs><style>.cls-1{fill:#efcc00;}.cls-2,.cls-5{fill:none;stroke-linecap:round;stroke-miterlimit:10;stroke-width:3px;}.cls-2{stroke:#efcc00;}.cls-3{fill:url(#linear-gradient);}.cls-4{fill:url(#linear-gradient-2);}.cls-5{stroke:#0baeff;}</style><linearGradient id="linear-gradient" x1="-693.28" y1="52.39" x2="-714.37" y2="25.08" gradientTransform="matrix(-1, 0, 0, 1, -674.2, 0)" gradientUnits="userSpaceOnUse"><stop offset="0" stop-color="#f2f2f2"/><stop offset="1" stop-color="#cfcfcf"/></linearGradient><linearGradient id="linear-gradient-2" x1="-712.5" y1="-48.39" x2="-700.88" y2="-30.75" gradientTransform="matrix(0, -1, -1, 0, 3.72, -671.31)" gradientUnits="userSpaceOnUse"><stop offset="0.02" stop-color="#fff"/><stop offset="1" stop-color="#fff" stop-opacity="0"/></linearGradient></defs><title>smiley_Artboard 7</title><circle class="cls-1" cx="39.8" cy="22" r="12.59"/><line class="cls-2" x1="39.8" y1="2" x2="39.8" y2="6.44"/><line class="cls-2" x1="39.8" y1="37.56" x2="39.8" y2="42"/><line class="cls-2" x1="19.8" y1="22" x2="24.25" y2="22"/><line class="cls-2" x1="55.36" y1="22" x2="59.8" y2="22"/><line class="cls-2" x1="25.66" y1="7.86" x2="28.8" y2="11"/><line class="cls-2" x1="50.8" y1="33" x2="53.94" y2="36.14"/><line class="cls-2" x1="25.66" y1="36.14" x2="28.8" y2="33"/><line class="cls-2" x1="50.8" y1="11" x2="53.94" y2="7.86"/><path class="cls-3" d="M23.5,15.9A17.49,17.49,0,0,1,39,25.22a13.75,13.75,0,1,1,6.92,25.62L23.5,50.9a17.5,17.5,0,0,1,0-35Z"/><circle class="cls-4" cx="45.89" cy="37.09" r="13.75" transform="translate(-2.18 71.3) rotate(-74.39)"/><line class="cls-5" x1="32.5" y1="55.5" x2="32.5" y2="56.5"/><line class="cls-5" x1="26.5" y1="53.5" x2="26.5" y2="54.5"/><line class="cls-5" x1="38.5" y1="53.5" x2="38.5" y2="54.5"/><line class="cls-5" x1="38.5" y1="59.5" x2="38.5" y2="60.5"/><line class="cls-5" x1="26.5" y1="59.5" x2="26.5" y2="60.5"/><line class="cls-5" x1="32.5" y1="61.5" x2="32.5" y2="62.5"/></svg>