<svg id="Layer_1" data-name="Layer 1" xmlns="http://www.w3.org/2000/svg" viewBox="0 0 64 64"><defs><style>.cls-1{fill:#f7563c;}.cls-2{fill:#efcc00;}.cls-3{fill:#42bc59;}.cls-4{fill:#0d98ff;}</style></defs><title>smiley_Artboard 29</title><path class="cls-1" d="M54.88,9.13A45.8,45.8,0,0,0,9.13,54.88h8.71a37.08,37.08,0,0,1,37-37"/><path class="cls-2" d="M54.88,17.84a37.08,37.08,0,0,0-37,37h8.71A28.35,28.35,0,0,1,54.88,26.55"/><path class="cls-3" d="M54.88,26.55A28.35,28.35,0,0,0,26.55,54.88h8.71A19.63,19.63,0,0,1,54.88,35.27"/><path class="cls-4" d="M54.88,35.27A19.63,19.63,0,0,0,35.27,54.88H44A10.89,10.89,0,0,1,54.88,44"/></svg>