<svg id="Layer_1" data-name="Layer 1" xmlns="http://www.w3.org/2000/svg" viewBox="0 0 64 64"><defs><style>.cls-1{fill:#efcc00;}.cls-2{fill:none;stroke:#efcc00;stroke-linecap:round;stroke-miterlimit:10;stroke-width:3px;}.cls-3{fill:#fff;}</style></defs><title>smiley_Artboard 45</title><circle class="cls-1" cx="32" cy="32" r="17"/><line class="cls-2" x1="32" y1="5" x2="32" y2="11"/><line class="cls-2" x1="32" y1="53" x2="32" y2="59"/><line class="cls-2" x1="59" y1="32" x2="53" y2="32"/><line class="cls-2" x1="11" y1="32" x2="5" y2="32"/><line class="cls-2" x1="51.09" y1="12.91" x2="46.85" y2="17.15"/><line class="cls-2" x1="17.15" y1="46.85" x2="12.91" y2="51.09"/><line class="cls-2" x1="51.09" y1="51.09" x2="46.85" y2="46.85"/><line class="cls-2" x1="17.15" y1="17.15" x2="12.91" y2="12.91"/><path class="cls-3" d="M24.79,27.75V33.7c0,1.78.67,2.68,1.87,2.68s1.9-.86,1.9-2.68V27.75h2.33v5.79c0,3.19-1.61,4.7-4.3,4.7s-4.14-1.44-4.14-4.73V27.75Z"/><path class="cls-3" d="M35.35,38.08,32,27.75H34.6l1.26,4.37c.35,1.23.67,2.41.92,3.69h0c.26-1.24.58-2.47.93-3.65l1.32-4.41h2.48L38.07,38.08Z"/></svg>