<svg id="Layer_1" data-name="Layer 1" xmlns="http://www.w3.org/2000/svg" xmlns:xlink="http://www.w3.org/1999/xlink" viewBox="0 0 64 64"><defs><style>.cls-1,.cls-2{fill:none;stroke-linecap:round;stroke-miterlimit:10;stroke-width:3px;}.cls-1{stroke:#0baeff;}.cls-2{stroke:#b9c1c6;}.cls-3{fill:url(#linear-gradient);}.cls-4{fill:url(#linear-gradient-2);}</style><linearGradient id="linear-gradient" x1="490.72" y1="46.39" x2="469.63" y2="19.08" gradientTransform="matrix(-1, 0, 0, 1, 509.97, 0)" gradientUnits="userSpaceOnUse"><stop offset="0" stop-color="#f2f2f2"/><stop offset="1" stop-color="#cfcfcf"/></linearGradient><linearGradient id="linear-gradient-2" x1="383.38" y1="156.64" x2="394.99" y2="174.29" gradientTransform="matrix(0, -1, -1, 0, 208.91, 418.56)" gradientUnits="userSpaceOnUse"><stop offset="0.02" stop-color="#fff"/><stop offset="1" stop-color="#fff" stop-opacity="0"/></linearGradient></defs><title>smiley_Artboard 32</title><line class="cls-1" x1="26.5" y1="48.5" x2="26.5" y2="51.5"/><line class="cls-2" x1="26.5" y1="55.5" x2="26.5" y2="55.5"/><line class="cls-1" x1="32.5" y1="50.5" x2="32.5" y2="53.5"/><line class="cls-2" x1="32.5" y1="57.5" x2="32.5" y2="57.5"/><line class="cls-1" x1="38.5" y1="48.5" x2="38.5" y2="51.5"/><line class="cls-2" x1="38.5" y1="55.5" x2="38.5" y2="55.5"/><path class="cls-3" d="M23.66,9.9a17.49,17.49,0,0,1,15.47,9.32A13.75,13.75,0,1,1,46,44.84l-22.39.06a17.5,17.5,0,0,1,0-35Z"/><circle class="cls-4" cx="46.05" cy="31.09" r="13.75" transform="translate(3.72 67.08) rotate(-74.39)"/></svg>