<svg id="Layer_1" data-name="Layer 1" xmlns="http://www.w3.org/2000/svg" viewBox="0 0 64 64"><defs><style>.cls-1{fill:#efcc00;}.cls-2{fill:#e0e0e0;}.cls-3,.cls-4{fill:none;stroke-linecap:round;stroke-miterlimit:10;stroke-width:3px;}.cls-3{stroke:#b9c1c6;}.cls-4{stroke:#a5a9aa;}</style></defs><title>smiley_Artboard 50</title><path class="cls-1" d="M44.54,41.47A23,23,0,0,1,24.49,11.73,1,1,0,0,0,23,10.59,23,23,0,1,0,54.41,42a1,1,0,0,0-1.14-1.47A23.06,23.06,0,0,1,44.54,41.47Z"/><path class="cls-2" d="M51.25,46.24c-4.84,0-10.82,0-11,0a20.18,20.18,0,0,1-16-9.75h-12a23,23,0,0,0,39,9.74Z"/><line class="cls-3" x1="25.5" y1="36.5" x2="10.83" y2="36.5"/><line class="cls-3" x1="9.54" y1="41.5" x2="19.22" y2="41.5"/><line class="cls-3" x1="7.85" y1="46.5" x2="53.86" y2="46.5"/><line class="cls-4" x1="34.49" y1="51.5" x2="55.65" y2="51.5"/><line class="cls-3" x1="11.85" y1="51.5" x2="27.3" y2="51.5"/><line class="cls-4" x1="26.4" y1="56.5" x2="45.75" y2="56.5"/><line class="cls-4" x1="15.64" y1="56.5" x2="20.12" y2="56.5"/><line class="cls-3" x1="24.61" y1="41.5" x2="30.89" y2="41.5"/></svg>