<svg id="Layer_1" data-name="Layer 1" xmlns="http://www.w3.org/2000/svg" xmlns:xlink="http://www.w3.org/1999/xlink" viewBox="0 0 64 64"><defs><style>.cls-1{fill:#efcc00;}.cls-2,.cls-5{fill:none;stroke-linecap:round;stroke-miterlimit:10;}.cls-2{stroke:#efcc00;stroke-width:3px;}.cls-3{fill:url(#linear-gradient);}.cls-4{fill:url(#linear-gradient-2);}.cls-5{stroke:#9c9fa0;stroke-width:2px;}.cls-6{fill:#c4c4c4;}.cls-7{fill:#e0e0e0;}.cls-8{fill:#fff;}</style><linearGradient id="linear-gradient" x1="-545.28" y1="52.39" x2="-566.37" y2="25.08" gradientTransform="matrix(-1, 0, 0, 1, -526.2, 0)" gradientUnits="userSpaceOnUse"><stop offset="0" stop-color="#f2f2f2"/><stop offset="1" stop-color="#cfcfcf"/></linearGradient><linearGradient id="linear-gradient-2" x1="-626.95" y1="-36.67" x2="-615.34" y2="-19.02" gradientTransform="matrix(0, -1, -1, 0, 15.44, -585.77)" gradientUnits="userSpaceOnUse"><stop offset="0.02" stop-color="#fff"/><stop offset="1" stop-color="#fff" stop-opacity="0"/></linearGradient></defs><title>smiley_Artboard 36</title><circle class="cls-1" cx="39.8" cy="22" r="12.59"/><line class="cls-2" x1="39.8" y1="2" x2="39.8" y2="6.44"/><line class="cls-2" x1="39.8" y1="37.56" x2="39.8" y2="42"/><line class="cls-2" x1="19.8" y1="22" x2="24.25" y2="22"/><line class="cls-2" x1="55.36" y1="22" x2="59.8" y2="22"/><line class="cls-2" x1="25.66" y1="7.86" x2="28.8" y2="11"/><line class="cls-2" x1="50.8" y1="33" x2="53.94" y2="36.14"/><line class="cls-2" x1="25.66" y1="36.14" x2="28.8" y2="33"/><line class="cls-2" x1="50.8" y1="11" x2="53.94" y2="7.86"/><path class="cls-3" d="M23.5,15.9A17.49,17.49,0,0,1,39,25.22a13.75,13.75,0,1,1,6.92,25.62L23.5,50.9a17.5,17.5,0,0,1,0-35Z"/><circle class="cls-4" cx="45.89" cy="37.09" r="13.75" transform="translate(-2.18 71.3) rotate(-74.39)"/><line class="cls-5" x1="32.13" y1="32.1" x2="32.13" y2="42.23"/><polyline class="cls-5" points="33.3 30.79 32.13 32.26 30.95 30.79"/><polyline class="cls-5" points="30.95 43.55 32.13 42.08 33.3 43.55"/><line class="cls-5" x1="36.51" y1="34.63" x2="27.74" y2="39.7"/><polyline class="cls-5" points="38.24 35 36.38 34.71 37.06 32.96"/><polyline class="cls-5" points="26.01 39.34 27.87 39.62 27.19 41.38"/><line class="cls-5" x1="36.51" y1="39.7" x2="27.74" y2="34.63"/><polyline class="cls-5" points="37.06 41.38 36.38 39.62 38.24 39.34"/><polyline class="cls-5" points="27.19 32.96 27.87 34.71 26.01 35"/><circle class="cls-6" cx="26.5" cy="57.63" r="2"/><circle class="cls-7" cx="36.5" cy="60.63" r="1.5"/><circle class="cls-7" cx="18.5" cy="53.63" r="1.5"/><circle class="cls-8" cx="32.5" cy="53.63" r="1"/><circle class="cls-8" cx="46.5" cy="60.63" r="1"/><circle class="cls-8" cx="17.5" cy="60.63" r="1"/><circle class="cls-6" cx="42.5" cy="54.63" r="2"/></svg>