<svg id="Layer_1" data-name="Layer 1" xmlns="http://www.w3.org/2000/svg" xmlns:xlink="http://www.w3.org/1999/xlink" viewBox="0 0 64 64"><defs><style>.cls-1{fill:#efcc00;}.cls-2{fill:url(#linear-gradient);}.cls-3{fill:url(#linear-gradient-2);}.cls-4,.cls-5{fill:none;stroke-linecap:round;stroke-miterlimit:10;stroke-width:3px;}.cls-4{stroke:#a5a9aa;}.cls-5{stroke:#b9c1c6;}</style><linearGradient id="linear-gradient" x1="-693.28" y1="52.39" x2="-714.37" y2="25.08" gradientTransform="matrix(-1, 0, 0, 1, -674.03, 0)" gradientUnits="userSpaceOnUse"><stop offset="0" stop-color="#f2f2f2"/><stop offset="1" stop-color="#cfcfcf"/></linearGradient><linearGradient id="linear-gradient-2" x1="-780.41" y1="3.15" x2="-768.79" y2="20.8" gradientTransform="matrix(0, -1, -1, 0, 55.42, -739.22)" gradientUnits="userSpaceOnUse"><stop offset="0.02" stop-color="#fff"/><stop offset="1" stop-color="#fff" stop-opacity="0"/></linearGradient></defs><title>smiley_Artboard 40</title><path class="cls-1" d="M50,20.71A13.88,13.88,0,0,1,37.86,2.77.6.6,0,0,0,37,2.08,13.88,13.88,0,1,0,55.92,21a.6.6,0,0,0-.69-.89A13.91,13.91,0,0,1,50,20.71Z"/><path class="cls-2" d="M23.66,15.9a17.49,17.49,0,0,1,15.47,9.32A13.75,13.75,0,1,1,46,50.84l-22.39.06a17.5,17.5,0,0,1,0-35Z"/><circle class="cls-3" cx="46.05" cy="37.09" r="13.75" transform="translate(-2.06 71.46) rotate(-74.39)"/><line class="cls-4" x1="37.84" y1="54.5" x2="48.06" y2="54.5"/><line class="cls-5" x1="15.94" y1="54.5" x2="32.74" y2="54.5"/><line class="cls-4" x1="33.23" y1="59.5" x2="44.55" y2="59.5"/><line class="cls-4" x1="19.96" y1="59.5" x2="27.65" y2="59.5"/></svg>