<svg id="Layer_1" data-name="Layer 1" xmlns="http://www.w3.org/2000/svg" xmlns:xlink="http://www.w3.org/1999/xlink" viewBox="0 0 64 64"><defs><style>.cls-1{fill:#efcc00;}.cls-2{fill:url(#linear-gradient);}.cls-3{fill:url(#linear-gradient-2);}.cls-4,.cls-5{fill:none;stroke-linecap:round;stroke-miterlimit:10;stroke-width:3px;}.cls-4{stroke:#0baeff;}.cls-5{stroke:#b9c1c6;}</style><linearGradient id="linear-gradient" x1="194.72" y1="52.39" x2="173.63" y2="25.08" gradientTransform="matrix(-1, 0, 0, 1, 213.97, 0)" gradientUnits="userSpaceOnUse"><stop offset="0" stop-color="#f2f2f2"/><stop offset="1" stop-color="#cfcfcf"/></linearGradient><linearGradient id="linear-gradient-2" x1="91.22" y1="122.6" x2="102.84" y2="140.25" gradientTransform="matrix(0, -1, -1, 0, 174.87, 132.41)" gradientUnits="userSpaceOnUse"><stop offset="0.02" stop-color="#fff"/><stop offset="1" stop-color="#fff" stop-opacity="0"/></linearGradient></defs><title>smiley_Artboard 34</title><path class="cls-1" d="M50,20.71A13.88,13.88,0,0,1,37.86,2.77.6.6,0,0,0,37,2.08,13.88,13.88,0,1,0,55.92,21a.6.6,0,0,0-.69-.89A13.91,13.91,0,0,1,50,20.71Z"/><path class="cls-2" d="M23.66,15.9a17.49,17.49,0,0,1,15.47,9.32A13.75,13.75,0,1,1,46,50.84l-22.39.06a17.5,17.5,0,0,1,0-35Z"/><circle class="cls-3" cx="46.05" cy="37.09" r="13.75" transform="translate(-2.06 71.46) rotate(-74.39)"/><line class="cls-4" x1="26.5" y1="53.5" x2="26.5" y2="56.5"/><line class="cls-5" x1="26.5" y1="60.5" x2="26.5" y2="60.5"/><line class="cls-4" x1="32.5" y1="55.5" x2="32.5" y2="58.5"/><line class="cls-5" x1="32.5" y1="62.5" x2="32.5" y2="62.5"/><line class="cls-4" x1="38.5" y1="53.5" x2="38.5" y2="56.5"/><line class="cls-5" x1="38.5" y1="60.5" x2="38.5" y2="60.5"/></svg>