<?xml version="1.0" encoding="utf-8"?>
<!-- Generator: Adobe Illustrator 16.0.0, SVG Export Plug-In . SVG Version: 6.00 Build 0)  -->
<!DOCTYPE svg PUBLIC "-//W3C//DTD SVG 1.1//EN" "http://www.w3.org/Graphics/SVG/1.1/DTD/svg11.dtd">
<svg version="1.1" id="Layer_1" xmlns="http://www.w3.org/2000/svg" xmlns:xlink="http://www.w3.org/1999/xlink" x="0px" y="0px"
	 width="96px" height="96px" viewBox="0 0 96 96" enable-background="new 0 0 96 96" xml:space="preserve">
<rect fill="#F7F7F7" width="96" height="96"/>
<g>
	<defs>
		<rect id="SVGID_1_" width="96" height="96"/>
	</defs>
	<clipPath id="SVGID_2_">
		<use xlink:href="#SVGID_1_"  overflow="visible"/>
	</clipPath>
</g>
<g>
	<defs>
		<rect id="SVGID_3_" width="96" height="96"/>
	</defs>
	<clipPath id="SVGID_4_">
		<use xlink:href="#SVGID_3_"  overflow="visible"/>
	</clipPath>
	<path clip-path="url(#SVGID_4_)" fill="#567B8E" d="M74.15,92.535L92.536,74.15c1.952-1.952,1.952-5.118,0-7.071
		c-1.953-1.951-5.119-1.951-7.071,0L67.08,85.465c-1.953,1.953-1.953,5.117,0,7.07S72.198,94.488,74.15,92.535"/>
	<path clip-path="url(#SVGID_4_)" fill="#2D4D68" d="M70.615,96c-1.87,0-3.628-0.729-4.95-2.051c-1.322-1.321-2.05-3.079-2.05-4.949
		s0.728-3.628,2.051-4.949L84.05,65.666c1.322-1.322,3.08-2.051,4.95-2.051s3.628,0.729,4.95,2.051
		c1.322,1.321,2.05,3.079,2.05,4.949s-0.728,3.628-2.05,4.949L75.565,93.949C74.243,95.271,72.485,96,70.615,96 M89,67.615
		c-0.801,0-1.555,0.312-2.121,0.879L68.494,86.879c-0.567,0.566-0.879,1.32-0.879,2.121s0.312,1.555,0.879,2.121
		c1.133,1.133,3.109,1.133,4.242,0h0.001l18.385-18.385C91.688,72.17,92,71.416,92,70.615s-0.312-1.555-0.878-2.121
		C90.555,67.927,89.801,67.615,89,67.615"/>
	<path clip-path="url(#SVGID_4_)" fill="#567B8E" d="M28.92,85.465L10.535,67.079c-1.952-1.951-5.118-1.951-7.071,0
		c-1.952,1.953-1.952,5.119,0,7.071l18.385,18.385c1.953,1.953,5.118,1.953,7.071,0S30.874,87.418,28.92,85.465"/>
	<path clip-path="url(#SVGID_4_)" fill="#2D4D68" d="M25.385,96c-1.87,0-3.628-0.729-4.95-2.051L2.05,75.564
		C0.728,74.243,0,72.485,0,70.615s0.728-3.628,2.05-4.949c1.322-1.322,3.08-2.051,4.95-2.051s3.628,0.729,4.95,2.051l18.384,18.385
		c1.323,1.321,2.051,3.079,2.051,4.949s-0.728,3.628-2.051,4.949C29.013,95.271,27.255,96,25.385,96 M7,67.615
		c-0.801,0-1.555,0.312-2.121,0.879C4.312,69.061,4,69.814,4,70.615s0.312,1.555,0.878,2.121l18.385,18.385
		c1.134,1.133,3.11,1.133,4.243,0c0.567-0.566,0.879-1.32,0.879-2.121s-0.312-1.555-0.879-2.121L9.122,68.494
		C8.555,67.927,7.801,67.615,7,67.615"/>
</g>
<g>
	<defs>
		<path id="SVGID_5_" d="M20,2c-5.523,0-10,4.477-10,10v28c0,20.986,17.014,38,38,38c20.987,0,38-17.014,38-38V12
			c0-5.523-4.477-10-10-10H20z"/>
	</defs>
	<clipPath id="SVGID_6_">
		<use xlink:href="#SVGID_5_"  overflow="visible"/>
	</clipPath>
	<path clip-path="url(#SVGID_6_)" fill="#567B8E" d="M76,2H20c-5.523,0-10,4.477-10,10v28c0,20.987,17.013,38,38,38
		c20.987,0,38-17.013,38-38V12C86,6.477,81.523,2,76,2"/>
	<path clip-path="url(#SVGID_6_)" fill="#A8C4C6" d="M65-9H9C3.477-9-1-4.523-1,1v28c0,20.987,17.013,38,38,38
		c20.987,0,38-17.013,38-38V1C75-4.523,70.523-9,65-9"/>
</g>
<g>
	<defs>
		<rect id="SVGID_7_" width="96" height="96"/>
	</defs>
	<clipPath id="SVGID_8_">
		<use xlink:href="#SVGID_7_"  overflow="visible"/>
	</clipPath>
	<path clip-path="url(#SVGID_8_)" fill="#AAE1ED" d="M21,23c0,5.523,4.477,10,10,10s10-4.477,10-10s-4.477-10-10-10S21,17.477,21,23
		"/>
	<path clip-path="url(#SVGID_8_)" fill="#2D4D68" d="M31,35c-6.617,0-12-5.383-12-12s5.383-12,12-12s12,5.383,12,12S37.617,35,31,35
		 M31,15c-4.411,0-8,3.589-8,8s3.589,8,8,8s8-3.589,8-8S35.411,15,31,15"/>
	<path clip-path="url(#SVGID_8_)" fill="#AAE1ED" d="M55,23c0,5.523,4.477,10,10,10s10-4.477,10-10s-4.477-10-10-10S55,17.477,55,23
		"/>
	<path clip-path="url(#SVGID_8_)" fill="#2D4D68" d="M65,35c-6.617,0-12-5.383-12-12s5.383-12,12-12s12,5.383,12,12S71.617,35,65,35
		 M65,15c-4.411,0-8,3.589-8,8s3.589,8,8,8s8-3.589,8-8S69.411,15,65,15"/>
	<path clip-path="url(#SVGID_8_)" fill="#567B8E" d="M38,58c0,5.523,4.477,10,10,10c5.523,0,10-4.477,10-10s-4.477-10-10-10
		C42.477,48,38,52.477,38,58"/>
	<path clip-path="url(#SVGID_8_)" fill="#2D4D68" d="M48,70c-6.617,0-12-5.383-12-12s5.383-12,12-12s12,5.383,12,12S54.617,70,48,70
		 M48,50c-4.411,0-8,3.589-8,8s3.589,8,8,8s8-3.589,8-8S52.411,50,48,50"/>
	<path clip-path="url(#SVGID_8_)" fill="#2D4D68" d="M48,80C25.944,80,8,62.056,8,40V12C8,5.383,13.383,0,20,0h56
		c6.617,0,12,5.383,12,12v28C88,62.056,70.056,80,48,80 M20,4c-4.411,0-8,3.589-8,8v28c0,19.851,16.149,36,36,36
		c19.851,0,36-16.149,36-36V12c0-4.411-3.589-8-8-8H20z"/>
</g>
</svg>
