<?xml version="1.0" encoding="utf-8"?>
<!-- Generator: Adobe Illustrator 16.0.0, SVG Export Plug-In . SVG Version: 6.00 Build 0)  -->
<!DOCTYPE svg PUBLIC "-//W3C//DTD SVG 1.1//EN" "http://www.w3.org/Graphics/SVG/1.1/DTD/svg11.dtd">
<svg version="1.1" id="Layer_1" xmlns="http://www.w3.org/2000/svg" xmlns:xlink="http://www.w3.org/1999/xlink" x="0px" y="0px"
	 width="96px" height="96px" viewBox="0 0 96 96" enable-background="new 0 0 96 96" xml:space="preserve">
<rect fill="#F7F7F7" width="96" height="96"/>
<g>
	<defs>
		<rect id="SVGID_1_" width="96" height="96"/>
	</defs>
	<clipPath id="SVGID_2_">
		<use xlink:href="#SVGID_1_"  overflow="visible"/>
	</clipPath>
</g>
<g>
	<defs>
		<rect id="SVGID_3_" width="96" height="96"/>
	</defs>
	<clipPath id="SVGID_4_">
		<use xlink:href="#SVGID_3_"  overflow="visible"/>
	</clipPath>
	<path clip-path="url(#SVGID_4_)" fill="#83EF60" d="M34,20c33.137,0,60,26.863,60,60v4c0,2.761-2.239,5-5,5s-5-2.239-5-5
		s-2.239-5-5-5s-5,2.239-5,5s-2.239,5-5,5s-5-2.239-5-5s-2.239-5-5-5s-5,2.239-5,5s-2.239,5-5,5c-2.761,0-5-2.239-5-5s-2.239-5-5-5
		s-5,2.239-5,5"/>
	<path clip-path="url(#SVGID_4_)" fill="#2D4D68" d="M89,91c-3.859,0-7-3.141-7-7c0-1.654-1.346-3-3-3s-3,1.346-3,3
		c0,3.859-3.141,7-7,7s-7-3.141-7-7c0-1.654-1.346-3-3-3s-3,1.346-3,3c0,3.859-3.141,7-7,7c-3.859,0-7-3.141-7-7
		c0-1.654-1.346-3-3-3s-3,1.346-3,3h-4c0-3.859,3.141-7,7-7s7,3.141,7,7c0,1.654,1.346,3,3,3c1.654,0,3-1.346,3-3
		c0-3.859,3.141-7,7-7s7,3.141,7,7c0,1.654,1.346,3,3,3s3-1.346,3-3c0-3.859,3.141-7,7-7s7,3.141,7,7c0,1.654,1.346,3,3,3
		s3-1.346,3-3v-4c0-31.981-26.019-58-58-58v-4c34.187,0,62,27.813,62,62v4C96,87.859,92.859,91,89,91"/>
</g>
<g>
	<defs>
		<path id="SVGID_5_" d="M14,12v72c0,5.523,4.477,10,10,10s10-4.477,10-10V12c0-5.523-4.477-10-10-10S14,6.477,14,12"/>
	</defs>
	<clipPath id="SVGID_6_">
		<use xlink:href="#SVGID_5_"  overflow="visible"/>
	</clipPath>
	<path clip-path="url(#SVGID_6_)" fill="#A8C4C6" d="M24,94L24,94c-5.523,0-10-4.477-10-10V12c0-5.523,4.477-10,10-10
		s10,4.477,10,10v72C34,89.523,29.523,94,24,94"/>
	<path clip-path="url(#SVGID_6_)" fill="#567B8E" d="M24,117L24,117c-5.523,0-10-4.477-10-10V35c0-5.523,4.477-10,10-10
		s10,4.477,10,10v72C34,112.523,29.523,117,24,117"/>
</g>
<g>
	<defs>
		<rect id="SVGID_7_" width="96" height="96"/>
	</defs>
	<clipPath id="SVGID_8_">
		<use xlink:href="#SVGID_7_"  overflow="visible"/>
	</clipPath>
	<path clip-path="url(#SVGID_8_)" fill="#2D4D68" d="M24,96c-6.617,0-12-5.383-12-12V12c0-6.617,5.383-12,12-12s12,5.383,12,12v72
		C36,90.617,30.617,96,24,96 M24,4c-4.411,0-8,3.589-8,8v72c0,4.411,3.589,8,8,8s8-3.589,8-8V12C32,7.589,28.411,4,24,4"/>
</g>
<g>
	<defs>
		<rect id="SVGID_9_" x="2" y="20" width="12.001" height="56"/>
	</defs>
	<clipPath id="SVGID_10_">
		<use xlink:href="#SVGID_9_"  overflow="visible"/>
	</clipPath>
	<rect x="2" y="20" clip-path="url(#SVGID_10_)" fill="#A8C4C6" width="12" height="56"/>
	<rect x="2" y="29" clip-path="url(#SVGID_10_)" fill="#567B8E" width="12" height="56"/>
</g>
<g>
	<defs>
		<rect id="SVGID_11_" width="96" height="96"/>
	</defs>
	<clipPath id="SVGID_12_">
		<use xlink:href="#SVGID_11_"  overflow="visible"/>
	</clipPath>
	<path clip-path="url(#SVGID_12_)" fill="#2D4D68" d="M14,78H2c-1.104,0-2-0.896-2-2V20c0-1.104,0.896-2,2-2h12c1.104,0,2,0.896,2,2
		v56C16,77.104,15.104,78,14,78 M4,74h8V22H4V74z"/>
	<path clip-path="url(#SVGID_12_)" fill="#FFFFFF" d="M66,33c0,5.523,4.477,10,10,10s10-4.477,10-10s-4.477-10-10-10
		S66,27.477,66,33"/>
	<path clip-path="url(#SVGID_12_)" fill="#2D4D68" d="M76,45c-6.617,0-12-5.383-12-12s5.383-12,12-12s12,5.383,12,12
		S82.617,45,76,45 M76,25c-4.411,0-8,3.589-8,8s3.589,8,8,8s8-3.589,8-8S80.411,25,76,25"/>
	<path clip-path="url(#SVGID_12_)" fill="#32AA77" d="M34,55c13.807,0,25,11.193,25,25c-2.761,0-5,2.239-5,5s-2.239,5-5,5
		c-2.761,0-5-2.239-5-5s-2.239-5-5-5s-5,2.239-5,5V55z"/>
	<path clip-path="url(#SVGID_12_)" fill="#2D4D68" d="M49,92c-3.859,0-7-3.141-7-7c0-1.654-1.346-3-3-3s-3,1.346-3,3
		c0,1.104-0.896,2-2,2s-2-0.896-2-2V55c0-1.104,0.896-2,2-2c14.888,0,27,12.112,27,27c0,1.104-0.896,2-2,2c-1.654,0-3,1.346-3,3
		C56,88.859,52.859,92,49,92 M39,78c3.859,0,7,3.141,7,7c0,1.654,1.346,3,3,3c1.654,0,3-1.346,3-3c0-3.143,2.082-5.809,4.938-6.69
		C56.119,67.074,47.194,58.055,36,57.086v21.59C36.91,78.243,37.927,78,39,78"/>
	<path clip-path="url(#SVGID_12_)" fill="#2D4D68" d="M81,80h-4c0-23.71-19.29-43-43-43v-4C59.916,33,81,54.084,81,80"/>
	<path clip-path="url(#SVGID_12_)" fill="#FFFFFF" d="M42,62c0,5.523,4.477,10,10,10c5.523,0,10-4.477,10-10s-4.477-10-10-10
		C46.477,52,42,56.477,42,62"/>
	<path clip-path="url(#SVGID_12_)" fill="#2D4D68" d="M52,74c-6.617,0-12-5.383-12-12s5.383-12,12-12s12,5.383,12,12
		S58.617,74,52,74 M52,54c-4.411,0-8,3.589-8,8s3.589,8,8,8s8-3.589,8-8S56.411,54,52,54"/>
</g>
</svg>
