<?xml version="1.0" encoding="utf-8"?>
<!-- Generator: Adobe Illustrator 16.0.0, SVG Export Plug-In . SVG Version: 6.00 Build 0)  -->
<!DOCTYPE svg PUBLIC "-//W3C//DTD SVG 1.1//EN" "http://www.w3.org/Graphics/SVG/1.1/DTD/svg11.dtd">
<svg version="1.1" id="Layer_1" xmlns="http://www.w3.org/2000/svg" xmlns:xlink="http://www.w3.org/1999/xlink" x="0px" y="0px"
	 width="96px" height="96px" viewBox="0 0 96 96" enable-background="new 0 0 96 96" xml:space="preserve">
<rect fill="#F7F7F7" width="96" height="96"/>
<g>
	<defs>
		<rect id="SVGID_1_" width="96" height="96"/>
	</defs>
	<clipPath id="SVGID_2_">
		<use xlink:href="#SVGID_1_"  overflow="visible"/>
	</clipPath>
</g>
<g>
	<defs>
		<rect id="SVGID_3_" width="96" height="96"/>
	</defs>
	<clipPath id="SVGID_4_">
		<use xlink:href="#SVGID_3_"  overflow="visible"/>
	</clipPath>
	<g clip-path="url(#SVGID_4_)">
		<defs>
			<path id="SVGID_5_" d="M-48.307,94c-4.322,0-7.826-3.504-7.826-7.826V58h-28.174v28.174c0,4.322-3.504,7.826-7.826,7.826H-48.307
				z"/>
		</defs>
		<clipPath id="SVGID_6_">
			<use xlink:href="#SVGID_5_"  overflow="visible"/>
		</clipPath>
		<rect x="-66.133" y="32" clip-path="url(#SVGID_6_)" fill="#A8C4C6" width="81" height="73"/>
	</g>
</g>
<g>
	<defs>
		<path id="SVGID_7_" d="M43,7v82c0,2.761,2.238,5,5,5c2.762,0,5-2.239,5-5V7c0-2.761-2.238-5-5-5C45.238,2,43,4.239,43,7"/>
	</defs>
	<clipPath id="SVGID_8_">
		<use xlink:href="#SVGID_7_"  overflow="visible"/>
	</clipPath>
	<path clip-path="url(#SVGID_8_)" fill="#FFFFFF" d="M53,89V7c0-2.761-2.239-5-5-5c-2.761,0-5,2.239-5,5v82c0,2.761,2.239,5,5,5
		C50.761,94,53,91.761,53,89"/>
	<path clip-path="url(#SVGID_8_)" fill="#A8C4C6" d="M53,51V39H43v12c0,2.761,2.239,5,5,5C50.761,56,53,53.761,53,51"/>
</g>
<g>
	<defs>
		<rect id="SVGID_9_" width="96" height="96"/>
	</defs>
	<clipPath id="SVGID_10_">
		<use xlink:href="#SVGID_9_"  overflow="visible"/>
	</clipPath>
	<path clip-path="url(#SVGID_10_)" fill="#2D4D68" d="M48,96c-3.859,0-7-3.141-7-7V7c0-3.859,3.141-7,7-7c3.859,0,7,3.141,7,7v82
		C55,92.859,51.859,96,48,96 M48,4c-1.654,0-3,1.346-3,3v82c0,1.654,1.346,3,3,3c1.654,0,3-1.346,3-3V7C51,5.346,49.654,4,48,4"/>
	<path clip-path="url(#SVGID_10_)" fill="#FFFFFF" d="M41.17,34.17l-20.785,12c-2.391,1.381-3.21,4.439-1.83,6.83
		c1.381,2.392,4.439,3.211,6.83,1.83l20.785-12c2.391-1.38,3.211-4.438,1.83-6.83C46.619,33.609,43.561,32.789,41.17,34.17"/>
	<path clip-path="url(#SVGID_10_)" fill="#2D4D68" d="M22.897,57.498c-2.421,0-4.779-1.255-6.074-3.499
		c-0.935-1.618-1.183-3.505-0.7-5.311c0.484-1.806,1.643-3.315,3.262-4.251l20.785-12c3.342-1.93,7.632-0.78,9.562,2.562
		c1.93,3.343,0.78,7.633-2.562,9.562l-20.785,12C25.286,57.196,24.083,57.498,22.897,57.498 M43.665,35.499
		c-0.52,0-1.033,0.136-1.495,0.403l-20.785,12c-1.432,0.827-1.925,2.666-1.098,4.098c0.828,1.435,2.667,1.927,4.098,1.1l20.785-12
		c0.694-0.401,1.19-1.048,1.398-1.822c0.207-0.774,0.1-1.583-0.3-2.277c-0.401-0.693-1.048-1.19-1.822-1.397
		C44.188,35.533,43.926,35.499,43.665,35.499"/>
	<path clip-path="url(#SVGID_10_)" fill="#A8C4C6" d="M49.83,42.83l20.785,12c2.391,1.381,5.449,0.562,6.83-1.83
		c1.38-2.392,0.561-5.45-1.83-6.83l-20.785-12C52.439,32.789,49.381,33.608,48,36C46.619,38.391,47.439,41.449,49.83,42.83"/>
	<path clip-path="url(#SVGID_10_)" fill="#2D4D68" d="M73.104,57.498c-1.188,0-2.39-0.301-3.488-0.936l-20.785-12
		c-3.343-1.93-4.492-6.219-2.562-9.562c1.93-3.343,6.219-4.491,9.562-2.562l20.785,12c1.619,0.935,2.777,2.444,3.261,4.25
		c0.484,1.806,0.236,3.692-0.699,5.312C77.882,56.243,75.524,57.498,73.104,57.498 M50.83,41.098l20.785,12
		c1.431,0.826,3.27,0.334,4.098-1.098c0.827-1.433,0.334-3.271-1.098-4.098l-20.785-12c-0.694-0.4-1.503-0.508-2.276-0.3
		c-0.773,0.207-1.421,0.704-1.821,1.398c-0.401,0.694-0.508,1.502-0.301,2.276C49.64,40.05,50.136,40.697,50.83,41.098"/>
	<path clip-path="url(#SVGID_10_)" fill="#FFFFFF" d="M58,36c0-5.523-4.477-10-10-10c-5.523,0-10,4.477-10,10s4.477,10,10,10
		C53.523,46,58,41.523,58,36"/>
	<path clip-path="url(#SVGID_10_)" fill="#2D4D68" d="M48,48c-6.617,0-12-5.383-12-12s5.383-12,12-12s12,5.383,12,12
		S54.617,48,48,48 M48,28c-4.411,0-8,3.589-8,8s3.589,8,8,8s8-3.589,8-8S52.411,28,48,28"/>
	<path clip-path="url(#SVGID_10_)" fill="#2D4D68" d="M84,24H63c-1.104,0-2-0.896-2-2s0.896-2,2-2h21c4.411,0,8-3.589,8-8
		s-3.589-8-8-8s-8,3.589-8,8c0,1.104-0.896,2-2,2s-2-0.896-2-2c0-6.617,5.383-12,12-12s12,5.383,12,12S90.617,24,84,24"/>
	<path clip-path="url(#SVGID_10_)" fill="#2D4D68" d="M83,31H68.4c-1.105,0-2-0.896-2-2s0.895-2,2-2H83c1.104,0,2,0.896,2,2
		S84.104,31,83,31"/>
</g>
</svg>
