<svg width="64px" height="64px" viewBox="0 0 64 64" version="1.1" xmlns="http://www.w3.org/2000/svg" xmlns:xlink="http://www.w3.org/1999/xlink">
    <defs>
        <linearGradient x1="9.79715944%" y1="72.1476018%" x2="99.9752693%" y2="25.4047249%" id="linearGradient-1">
            <stop stopColor="#F7563C" offset="2%"></stop>
            <stop stopColor="#D43217" offset="100%"></stop>
        </linearGradient>
        <linearGradient x1="2951.60773%" y1="3602%" x2="4811.833%" y2="4329%" id="linearGradient-2">
            <stop stopColor="#F7563C" offset="2%"></stop>
            <stop stopColor="#D43217" offset="100%"></stop>
        </linearGradient>
        <linearGradient x1="3492%" y1="1965.05363%" x2="2867%" y2="486.592537%" id="linearGradient-3">
            <stop stopColor="#F7563C" offset="2%"></stop>
            <stop stopColor="#D43217" offset="100%"></stop>
        </linearGradient>
        <linearGradient x1="2720%" y1="3166.44643%" x2="4076%" y2="4360.96974%" id="linearGradient-4">
            <stop stopColor="#F7563C" offset="2%"></stop>
            <stop stopColor="#D43217" offset="100%"></stop>
        </linearGradient>
        <linearGradient x1="2353.61355%" y1="3074%" x2="776.914235%" y2="1714%" id="linearGradient-5">
            <stop stopColor="#F7563C" offset="2%"></stop>
            <stop stopColor="#D43217" offset="100%"></stop>
        </linearGradient>
        <linearGradient x1="1734.79234%" y1="3490%" x2="1456.44287%" y2="5751%" id="linearGradient-6">
            <stop stopColor="#F7563C" offset="2%"></stop>
            <stop stopColor="#D43217" offset="100%"></stop>
        </linearGradient>
    </defs>
    <g id="Page-1" stroke="none" stroke-width="1" fill="none" fill-rule="evenodd">
        <g id="Artboard" fill-rule="nonzero">
            <g id="Group-2" transform="translate(3.000000, 0.000000)">
                <g id="weather_47">
                    <path d="M39.4953162,11.4462074 C45.5364192,7.95564258 53.2633627,10.0232623 56.7539275,16.0643653 C60.2444924,22.1054683 58.1768726,29.8324118 52.1357696,33.3229766 C46.0961708,36.8125226 35.2004904,36.5684984 31.7231456,30.5288996 C28.2458008,24.4893007 33.4557174,14.9357534 39.4953162,11.4462074 Z" id="Shape" fill="url(#linearGradient-1)"></path>
                    <path d="M52.1357696,30.5411008 C56.0436781,32.7991003 58.4501061,36.9704222 58.4485754,41.48377 C58.4470447,45.9971178 56.0377879,50.1668065 52.1283486,52.4221547 C48.2189094,54.6775029 43.4032247,54.6758696 39.4953162,52.41787 C33.3947113,48.928324 28.2091971,39.3747767 31.6987431,33.3351778 C35.1882892,27.295579 46.0961708,27.0515548 52.1357696,30.5411008 Z" id="Shape" fill="url(#linearGradient-2)"></path>
                    <path d="M41.9111558,12.8371453 C41.9111558,19.8162373 36.2497944,29.1257604 29.2829036,29.1257604 C22.3160128,29.1257604 16.6546514,19.8162373 16.6546514,12.8371453 C16.6546514,5.85938495 22.3112438,0.202792536 29.2890042,0.202792536 C36.2667646,0.202792536 41.923357,5.85938495 41.923357,12.8371453 L41.9111558,12.8371453 Z" id="Shape" fill="url(#linearGradient-3)"></path>
                    <path d="M41.9111558,51.0269321 C41.9111556,58.0046924 36.2545633,63.6612846 29.276803,63.6612846 C22.2990427,63.6612846 16.6424504,58.0046924 16.6424502,51.0269321 C16.6424502,44.0478401 22.3038116,34.738317 29.2707024,34.738317 C36.2375932,34.738317 41.9111558,44.0478401 41.9111558,51.0269321 Z" id="Shape" fill="url(#linearGradient-4)"></path>
                    <path d="M19.070491,11.4462074 C25.1710959,14.9357534 30.3566101,24.4893007 26.8670641,30.5288996 C23.377518,36.5684984 12.4696365,36.8125226 6.43003758,33.3229766 C0.388934571,29.8324118 -1.67868516,22.1054683 1.81187966,16.0643653 C5.30244448,10.0232623 13.029388,7.95564258 19.070491,11.4462074 Z" id="Shape" fill="url(#linearGradient-5)"></path>
                    <path d="M6.43003758,30.5411008 C12.4696365,27.0515548 23.3653168,27.295579 26.8426616,33.3351778 C30.3200064,39.3747767 25.0856874,48.928324 19.0460886,52.41787 C13.0167911,55.7797187 5.40527436,53.6770748 1.95663876,47.6969939 C-1.49199683,41.716913 0.500422482,34.075803 6.43003758,30.5411008 Z" id="Shape" fill="url(#linearGradient-6)"></path>
                    <circle id="Oval" fill="#EFCC00" cx="29.2829036" cy="31.9320387" r="12.6282522"></circle>
                    <circle id="Oval" fill="#EFCC00" cx="9.76096787" cy="18.5107079" r="2.44024197"></circle>
                    <circle id="Oval" fill="#EFCC00" cx="10.9810889" cy="53.8942164" r="2.44024197"></circle>
                    <circle id="Oval" fill="#EFCC00" cx="51.2450813" cy="11.189982" r="2.44024197"></circle>
                    <circle id="Oval" fill="#FFFFFF" cx="9.76096787" cy="3.86925609" r="1.83018148"></circle>
                    <circle id="Oval" fill="#FFFFFF" cx="45.1444764" cy="2.64913511" r="1.83018148"></circle>
                </g>
                <path d="M37.0550743,39.7042094 C39.1943531,37.5567964 40.2639925,34.9660729 40.2639925,31.9320387 C40.2639925,28.9061387 39.1943531,26.3194822 37.0550743,24.1720693 C34.9076613,22.0246563 32.3169378,20.9509499 29.2829036,20.9509499 C26.2488694,20.9509499 23.6622129,22.0246563 21.5229341,24.1720693 C19.3755212,26.3194822 18.3018148,28.9061387 18.3018148,31.9320387 C18.3018148,34.9660729 19.3755212,37.5567964 21.5229341,39.7042094 C23.6622129,41.8434882 26.2488694,42.9131276 29.2829036,42.9131276 C32.3169378,42.9131276 34.9076613,41.8434882 37.0550743,39.7042094 L37.0550743,39.7042094 Z M29.2829036,22.817735 C31.8126211,22.817735 33.9641011,23.7043562 35.7373436,25.4775987 C37.5268544,27.2671095 38.4216098,29.4185895 38.4216098,31.9320387 C38.4216098,34.4617562 37.5268544,36.6173033 35.7373436,38.3986799 C33.9641011,40.1800566 31.8126211,41.0707449 29.2829036,41.0707449 C26.7694544,41.0707449 24.6179744,40.1800566 22.8284636,38.3986799 C21.047087,36.6173033 20.1563986,34.4617562 20.1563986,31.9320387 C20.1563986,29.4185895 21.047087,27.2671095 22.8284636,25.4775987 C24.6179744,23.7043562 26.7694544,22.817735 29.2829036,22.817735 L29.2829036,22.817735 Z M23.0114817,34.042848 C23.02775,34.2462015 23.1131585,34.4129514 23.2677072,34.5430976 C27.2615698,38.0245095 31.2554325,38.0245095 35.2492952,34.5430976 C35.3957097,34.4129514 35.4770511,34.2462015 35.4933194,34.042848 C35.5014535,33.8476287 35.4445146,33.6727446 35.3225025,33.518196 C35.1842221,33.3717815 35.0174722,33.2904401 34.8222529,33.2741718 C34.6188994,33.2660377 34.4440154,33.3270437 34.2976008,33.4571899 C30.9382011,36.3854803 27.5747342,36.3854803 24.2072003,33.4571899 C24.0607858,33.3270437 23.8899689,33.2660377 23.6947495,33.2741718 C23.491396,33.2904401 23.3287132,33.3717815 23.2067011,33.518196 C23.0684207,33.6727446 23.0033476,33.8476287 23.0114817,34.042848 L23.0114817,34.042848 Z M23.1456951,30.0164488 C23.1456951,30.4312899 23.2839754,30.7810579 23.5605362,31.0657528 C23.8614994,31.366716 24.2194015,31.5171976 24.6342427,31.5171976 C25.0490838,31.5171976 25.3988518,31.366716 25.6835467,31.0657528 C25.9845099,30.7810579 26.1349915,30.4312899 26.1349915,30.0164488 C26.1349915,29.5934735 25.9845099,29.2355713 25.6835467,28.9427423 C25.3988518,28.6661815 25.0490838,28.5279012 24.6342427,28.5279012 C24.2194015,28.5279012 23.8614994,28.6661815 23.5605362,28.9427423 C23.2839754,29.2355713 23.1456951,29.5934735 23.1456951,30.0164488 L23.1456951,30.0164488 Z M33.9193633,31.5171976 C34.3342045,31.5171976 34.6839725,31.366716 34.9686674,31.0657528 C35.2696306,30.7810579 35.4201121,30.4312899 35.4201121,30.0164488 C35.4201121,29.5934735 35.2696306,29.2355713 34.9686674,28.9427423 C34.6839725,28.6661815 34.3342045,28.5279012 33.9193633,28.5279012 C33.5045222,28.5279012 33.1466201,28.6661815 32.8456569,28.9427423 C32.5690961,29.2355713 32.4308157,29.5934735 32.4308157,30.0164488 C32.4308157,30.4312899 32.5690961,30.7810579 32.8456569,31.0657528 C33.1466201,31.366716 33.5045222,31.5171976 33.9193633,31.5171976 Z" id="Shape" fill="#4A4A4A"></path>
            </g>
        </g>
    </g>
</svg>