<svg width="64px" height="64px" viewBox="0 0 64 64" version="1.1" xmlns="http://www.w3.org/2000/svg" xmlns:xlink="http://www.w3.org/1999/xlink">
    <defs>
        <linearGradient x1="9.79715944%" y1="72.1476018%" x2="99.9752693%" y2="25.4047249%" id="pollenlinearGradient-1">
            <stop stop-color="#F7563C" offset="2%"></stop>
            <stop stop-color="#D43217" offset="100%"></stop>
        </linearGradient>
        <linearGradient x1="2951.60773%" y1="3602%" x2="4811.833%" y2="4329%" id="pollenlinearGradient-2">
            <stop stop-color="#F7563C" offset="2%"></stop>
            <stop stop-color="#D43217" offset="100%"></stop>
        </linearGradient>
        <linearGradient x1="3492%" y1="1965.05363%" x2="2867%" y2="486.592537%" id="pollenlinearGradient-3">
            <stop stop-color="#F7563C" offset="2%"></stop>
            <stop stop-color="#D43217" offset="100%"></stop>
        </linearGradient>
        <linearGradient x1="2720%" y1="3166.44643%" x2="4076%" y2="4360.96974%" id="pollenlinearGradient-4">
            <stop stop-color="#F7563C" offset="2%"></stop>
            <stop stop-color="#D43217" offset="100%"></stop>
        </linearGradient>
        <linearGradient x1="2353.61355%" y1="3074%" x2="776.914235%" y2="1714%" id="pollenlinearGradient-5">
            <stop stop-color="#F7563C" offset="2%"></stop>
            <stop stop-color="#D43217" offset="100%"></stop>
        </linearGradient>
        <linearGradient x1="1734.79234%" y1="3490%" x2="1456.44287%" y2="5751%" id="pollenlinearGradient-6">
            <stop stop-color="#F7563C" offset="2%"></stop>
            <stop stop-color="#D43217" offset="100%"></stop>
        </linearGradient>
    </defs>
    <g id="Page-1" stroke="none" stroke-width="1" fill="none" fill-rule="evenodd">
        <g id="pollen2" fill-rule="nonzero">
            <g id="Group-3" transform="translate(3.000000, 0.000000)">
                <g id="weather_47">
                    <path d="M39.788125,12.1007407 C45.8740153,8.71012148 53.6582445,10.7185389 57.1746875,16.5866667 C60.6911305,22.4547944 58.608182,29.9604918 52.5222917,33.3511111 C46.4379167,36.7407407 35.4614583,36.5037037 31.9583333,30.637037 C28.4552083,24.7703704 33.70375,15.4903704 39.788125,12.1007407 Z" id="Shape" fill="url(#pollenlinearGradient-1)"></path>
                    <path d="M52.5222917,30.6488889 C56.4591725,32.8422349 58.8834411,36.8941192 58.8818991,41.278236 C58.880357,45.6623528 56.4532385,49.7126506 52.5148157,51.9034213 C48.5763928,54.094192 43.7250057,54.0926054 39.788125,51.8992593 C33.6422917,48.5096296 28.4183333,39.2296296 31.93375,33.362963 C35.4491667,27.4962963 46.4379167,27.2592593 52.5222917,30.6488889 Z" id="Shape" fill="url(#pollenlinearGradient-2)"></path>
                    <path d="M42.221875,13.4518519 C42.221875,20.2311111 36.5185417,29.2740741 29.5,29.2740741 C22.4814583,29.2740741 16.778125,20.2311111 16.778125,13.4518519 C16.778125,6.67388612 22.476654,1.17925926 29.5061458,1.17925926 C36.5356376,1.17925926 42.2341667,6.67388612 42.2341667,13.4518519 L42.221875,13.4518519 Z" id="Shape" fill="url(#pollenlinearGradient-3)"></path>
                    <path d="M42.221875,50.5481481 C42.2218749,57.3261138 36.5233459,62.8207405 29.4938542,62.8207405 C22.4643625,62.8207405 16.7658335,57.3261138 16.7658333,50.5481481 C16.7658333,43.7688889 22.4691667,34.7259259 29.4877083,34.7259259 C36.50625,34.7259259 42.221875,43.7688889 42.221875,50.5481481 Z" id="Shape" fill="url(#pollenlinearGradient-4)"></path>
                    <path d="M19.211875,12.1007407 C25.3577083,15.4903704 30.5816667,24.7703704 27.06625,30.637037 C23.5508333,36.5037037 12.5620833,36.7407407 6.47770833,33.3511111 C0.391818039,29.9604918 -1.69113053,22.4547944 1.8253125,16.5866667 C5.34175553,10.7185389 13.1259847,8.71012148 19.211875,12.1007407 Z" id="Shape" fill="url(#pollenlinearGradient-5)"></path>
                    <path d="M6.47770833,30.6488889 C12.5620833,27.2592593 23.5385417,27.4962963 27.0416667,33.362963 C30.5447917,39.2296296 25.2716667,48.5096296 19.1872917,51.8992593 C13.1132944,55.1648479 5.44534776,53.1224091 1.97114481,47.3135563 C-1.50305814,41.5047034 0.504132494,34.0823817 6.47770833,30.6488889 Z" id="Shape" fill="url(#pollenlinearGradient-6)"></path>
                    <ellipse id="Oval" fill="#EFCC00" cx="29.5" cy="32" rx="12.721875" ry="12.2666667"></ellipse>
                    <ellipse id="Oval" fill="#EFCC00" cx="36.875" cy="46.2222222" rx="2.45833333" ry="2.37037037"></ellipse>
                    <ellipse id="Oval" fill="#EFCC00" cx="19.6666667" cy="55.7037037" rx="2.45833333" ry="2.37037037"></ellipse>
                    <ellipse id="Oval" fill="#EFCC00" cx="56.5416667" cy="43.8518519" rx="2.45833333" ry="2.37037037"></ellipse>
                    <ellipse id="Oval" fill="#EFCC00" cx="27.0416667" cy="15.4074074" rx="2.45833333" ry="2.37037037"></ellipse>
                    <ellipse id="Oval" fill="#EFCC00" cx="39.3333333" cy="3.55555556" rx="2.45833333" ry="2.37037037"></ellipse>
                    <ellipse id="Oval" fill="#EFCC00" cx="2.45833333" cy="33.1851852" rx="2.45833333" ry="2.37037037"></ellipse>
                    <ellipse id="Oval" fill="#EFCC00" cx="45.4791667" cy="22.5185185" rx="2.45833333" ry="2.37037037"></ellipse>
                    <ellipse id="Oval" fill="#FFFFFF" cx="9.83333333" cy="4.74074074" rx="1.84375" ry="1.77777778"></ellipse>
                    <ellipse id="Oval" fill="#FFFFFF" cx="45.4791667" cy="3.55555556" rx="1.84375" ry="1.77777778"></ellipse>
                </g>
                <path d="M37.1444433,39.1112449 C39.2784385,37.0755179 40.3454362,34.6195366 40.3454362,31.7433011 C40.3454362,28.8747766 39.2784385,26.4226509 37.1444433,24.3869239 C35.0023339,22.3511968 32.4180089,21.3333333 29.3914681,21.3333333 C26.3649273,21.3333333 23.7846592,22.3511968 21.650664,24.3869239 C19.5085547,26.4226509 18.4375,28.8747766 18.4375,31.7433011 C18.4375,34.6195366 19.5085547,37.0755179 21.650664,39.1112449 C23.7846592,41.1392608 26.3649273,42.1532688 29.3914681,42.1532688 C32.4180089,42.1532688 35.0023339,41.1392608 37.1444433,39.1112449 L37.1444433,39.1112449 Z M29.3914681,23.1030278 C31.9149378,23.1030278 34.0611041,23.9435364 35.8299671,25.6245534 C37.6150582,27.3209926 38.5076037,29.3605751 38.5076037,31.7433011 C38.5076037,34.1414492 37.6150582,36.1848873 35.8299671,37.8736154 C34.0611041,39.5623435 31.9149378,40.4067076 29.3914681,40.4067076 C26.8842265,40.4067076 24.7380602,39.5623435 22.9529691,37.8736154 C21.175992,36.1848873 20.2875035,34.1414492 20.2875035,31.7433011 C20.2875035,29.3605751 21.175992,27.3209926 22.9529691,25.6245534 C24.7380602,23.9435364 26.8842265,23.1030278 29.3914681,23.1030278 L29.3914681,23.1030278 Z M25.4967239,36.7169523 C25.6671189,36.8249076 25.845628,36.8596074 26.0322512,36.821052 L33.9799636,35.3405233 C34.1828149,35.3019678 34.3369818,35.2017237 34.4424645,35.0397909 C34.5560612,34.8855691 34.5925744,34.7197807 34.5520041,34.5424257 C34.5114339,34.3496486 34.4100083,34.2031379 34.2477273,34.1028938 C34.0773322,33.9872275 33.8988231,33.9525276 33.7121999,33.9987941 L25.7644875,35.4677562 C25.5616363,35.5063116 25.4074693,35.6065558 25.3019867,35.7684886 C25.18839,35.9227103 25.1518767,36.0923543 25.192447,36.2774204 C25.2330172,36.4624865 25.3344429,36.6089971 25.4967239,36.7169523 L25.4967239,36.7169523 Z M23.6832336,30.9220703 C23.9834535,31.2073805 24.3404717,31.3500356 24.7542883,31.3500356 C25.1681048,31.3500356 25.517009,31.2073805 25.8010008,30.9220703 C26.1012206,30.6521822 26.2513306,30.3206055 26.2513306,29.92734 C26.2513306,29.5263635 26.1012206,29.1870757 25.8010008,28.9094765 C25.517009,28.6472996 25.1681048,28.5162111 24.7542883,28.5162111 C24.3404717,28.5162111 23.9834535,28.6472996 23.6832336,28.9094765 C23.4073559,29.1870757 23.269417,29.5263635 23.269417,29.92734 C23.269417,30.3206055 23.4073559,30.6521822 23.6832336,30.9220703 L23.6832336,30.9220703 Z M35.0631893,28.9094765 C34.7791976,28.6472996 34.4302934,28.5162111 34.0164768,28.5162111 C33.6026602,28.5162111 33.245642,28.6472996 32.9454222,28.9094765 C32.6695444,29.1870757 32.5316056,29.5263635 32.5316056,29.92734 C32.5316056,30.3206055 32.6695444,30.6521822 32.9454222,30.9220703 C33.245642,31.2073805 33.6026602,31.3500356 34.0164768,31.3500356 C34.4302934,31.3500356 34.7791976,31.2073805 35.0631893,30.9220703 C35.3634092,30.6521822 35.5135191,30.3206055 35.5135191,29.92734 C35.5135191,29.5263635 35.3634092,29.1870757 35.0631893,28.9094765 Z" id="Shape" fill="#4A4A4A"></path>
            </g>
        </g>
    </g>
</svg>