<?xml version="1.0" encoding="utf-8"?>
<!-- Generator: Adobe Illustrator 16.0.0, SVG Export Plug-In . SVG Version: 6.00 Build 0)  -->
<!DOCTYPE svg PUBLIC "-//W3C//DTD SVG 1.1//EN" "http://www.w3.org/Graphics/SVG/1.1/DTD/svg11.dtd">
<svg version="1.1" id="Layer_1" xmlns="http://www.w3.org/2000/svg" xmlns:xlink="http://www.w3.org/1999/xlink" x="0px" y="0px"
	 width="96px" height="96px" viewBox="0 0 96 96" enable-background="new 0 0 96 96" xml:space="preserve">
<rect fill="#F7F7F7" width="96" height="96"/>
<g>
	<defs>
		<rect id="SVGID_1_" width="96" height="96"/>
	</defs>
	<clipPath id="SVGID_2_">
		<use xlink:href="#SVGID_1_"  overflow="visible"/>
	</clipPath>
</g>
<g>
	<defs>
		<path id="SVGID_3_" d="M57.858,67c-3.906,3.905-3.906,10.237,0,14.142l4.357,4.358c3.905,3.905,10.237,3.905,14.143,0
			c3.904-3.905,3.904-10.237,0-14.142L72,67c-1.953-1.952-4.512-2.929-7.071-2.929C62.37,64.071,59.811,65.048,57.858,67"/>
	</defs>
	<clipPath id="SVGID_4_">
		<use xlink:href="#SVGID_3_"  overflow="visible"/>
	</clipPath>
	<path clip-path="url(#SVGID_4_)" fill="#32AA77" d="M57.857,67L57.857,67c-2.984,2.985-2.984,7.825,0,10.811l7.689,7.689
		c2.986,2.985,7.826,2.985,10.811,0c2.985-2.985,2.985-7.825,0-10.811L68.669,67C65.683,64.015,60.843,64.015,57.857,67"/>
	<path clip-path="url(#SVGID_4_)" fill="#83EF60" d="M65.107,74.489L65.107,74.489c-3.131,3.131-3.131,8.208,0,11.339l8.065,8.063
		c3.131,3.132,8.207,3.132,11.338,0c3.131-3.131,3.131-8.207,0-11.338l-8.063-8.064C73.315,71.358,68.239,71.358,65.107,74.489"/>
</g>
<g>
	<defs>
		<rect id="SVGID_5_" width="96" height="96"/>
	</defs>
	<clipPath id="SVGID_6_">
		<use xlink:href="#SVGID_5_"  overflow="visible"/>
	</clipPath>
	<path clip-path="url(#SVGID_6_)" fill="#2D4D68" d="M69.287,90.423c-3.073,0-6.146-1.169-8.485-3.509l-4.358-4.357
		c-4.679-4.679-4.679-12.292,0-16.971c4.68-4.679,12.292-4.68,16.971,0l4.357,4.357c4.68,4.679,4.68,12.292,0,16.971
		C75.433,89.254,72.359,90.423,69.287,90.423 M64.929,66.075c-2.048,0-4.097,0.779-5.657,2.339c-3.119,3.119-3.119,8.195,0,11.314
		l4.358,4.357c3.119,3.118,8.194,3.12,11.313,0c3.119-3.119,3.119-8.195,0-11.314l-4.357-4.357
		C69.026,66.854,66.978,66.075,64.929,66.075"/>
</g>
<g>
	<defs>
		<path id="SVGID_7_" d="M22.923,67c-3.905,3.905-3.905,10.237,0,14.142l4.359,4.358c3.905,3.905,10.236,3.905,14.141,0
			c3.906-3.905,3.906-10.237,0-14.142L37.066,67c-1.953-1.952-4.512-2.929-7.071-2.929C27.435,64.071,24.876,65.048,22.923,67"/>
	</defs>
	<clipPath id="SVGID_8_">
		<use xlink:href="#SVGID_7_"  overflow="visible"/>
	</clipPath>
	<path clip-path="url(#SVGID_8_)" fill="#32AA77" d="M22.923,67L22.923,67c-2.985,2.985-2.985,7.825,0,10.811l7.689,7.689
		c2.986,2.985,7.826,2.985,10.811,0s2.985-7.825,0-10.811L33.734,67C30.749,64.015,25.908,64.015,22.923,67"/>
	<path clip-path="url(#SVGID_8_)" fill="#83EF60" d="M30.173,74.489L30.173,74.489c-3.131,3.131-3.131,8.208,0,11.339l8.065,8.063
		c3.131,3.132,8.207,3.132,11.338,0c3.131-3.131,3.131-8.207,0-11.338l-8.064-8.064C38.381,71.358,33.304,71.358,30.173,74.489"/>
</g>
<g>
	<defs>
		<rect id="SVGID_9_" width="96" height="96"/>
	</defs>
	<clipPath id="SVGID_10_">
		<use xlink:href="#SVGID_9_"  overflow="visible"/>
	</clipPath>
	<path clip-path="url(#SVGID_10_)" fill="#2D4D68" d="M34.353,90.423c-3.073,0-6.146-1.169-8.485-3.509l-4.358-4.357
		c-4.679-4.679-4.679-12.292,0-16.971s12.292-4.68,16.97,0l4.358,4.357c4.679,4.679,4.679,12.292,0,16.971
		C40.499,89.254,37.425,90.423,34.353,90.423 M29.994,66.075c-2.048,0-4.097,0.779-5.657,2.339c-3.119,3.119-3.119,8.195,0,11.314
		l4.358,4.357c3.119,3.118,8.195,3.12,11.314,0c3.119-3.119,3.119-8.195,0-11.314l-4.358-4.357
		C34.092,66.854,32.043,66.075,29.994,66.075"/>
</g>
<g>
	<defs>
		<path id="SVGID_11_" d="M12,33C6.477,33,2,37.477,2,43c0,5.523,4.477,10,10,10h72c5.523,0,10-4.477,10-10c0-5.523-4.477-10-10-10
			c0-5.523-4.477-10-10-10s-10,4.477-10,10C64,18.641,52.359,7,38,7C23.64,7,12,18.641,12,33"/>
	</defs>
	<clipPath id="SVGID_12_">
		<use xlink:href="#SVGID_11_"  overflow="visible"/>
	</clipPath>
	<path clip-path="url(#SVGID_12_)" fill="#FFFFFF" d="M84,33c0-5.523-4.477-10-10-10s-10,4.477-10,10C64,18.641,52.359,7,38,7
		C23.641,7,12,18.641,12,33C6.477,33,2,37.477,2,43c0,5.523,4.477,10,10,10h72c5.523,0,10-4.477,10-10C94,37.477,89.523,33,84,33"/>
	<rect x="-8" y="35" clip-path="url(#SVGID_12_)" fill="#AAE1ED" width="134" height="30"/>
</g>
<g>
	<defs>
		<rect id="SVGID_13_" width="96" height="96"/>
	</defs>
	<clipPath id="SVGID_14_">
		<use xlink:href="#SVGID_13_"  overflow="visible"/>
	</clipPath>
	<path clip-path="url(#SVGID_14_)" fill="#2D4D68" d="M84,55H12C5.383,55,0,49.617,0,43c0-5.956,4.362-10.913,10.06-11.844
		C11.012,16.573,23.18,5,38,5c12.731,0,23.505,8.541,26.893,20.194C67.096,22.628,70.361,21,74,21
		c5.985,0,10.961,4.405,11.856,10.144C91.595,32.038,96,37.015,96,43C96,49.617,90.617,55,84,55 M38,9C24.766,9,14,19.767,14,33
		c0,1.104-0.896,2-2,2c-4.411,0-8,3.589-8,8s3.589,8,8,8h72c4.411,0,8-3.589,8-8s-3.589-8-8-8c-1.104,0-2-0.896-2-2
		c0-4.411-3.589-8-8-8s-8,3.589-8,8c0,1.104-0.896,2-2,2s-2-0.896-2-2C62,19.767,51.234,9,38,9"/>
</g>
</svg>
