<?xml version="1.0" encoding="utf-8"?>
<!-- Generator: Adobe Illustrator 16.0.0, SVG Export Plug-In . SVG Version: 6.00 Build 0)  -->
<!DOCTYPE svg PUBLIC "-//W3C//DTD SVG 1.1//EN" "http://www.w3.org/Graphics/SVG/1.1/DTD/svg11.dtd">
<svg version="1.1" id="Layer_1" xmlns="http://www.w3.org/2000/svg" xmlns:xlink="http://www.w3.org/1999/xlink" x="0px" y="0px"
	 width="96px" height="96px" viewBox="0 0 96 96" enable-background="new 0 0 96 96" xml:space="preserve">
<rect fill="#F7F7F7" width="96" height="96"/>
<g>
	<defs>
		<rect id="SVGID_1_" width="96" height="96"/>
	</defs>
	<clipPath id="SVGID_2_">
		<use xlink:href="#SVGID_1_"  overflow="visible"/>
	</clipPath>
</g>
<g>
	<defs>
		<path id="SVGID_3_" d="M43,2c-2.761,0-5,2.239-5,5v5h20V7c0-2.761-2.239-5-5-5H43z"/>
	</defs>
	<clipPath id="SVGID_4_">
		<use xlink:href="#SVGID_3_"  overflow="visible"/>
	</clipPath>
	<path clip-path="url(#SVGID_4_)" fill="#FFFFFF" d="M58,12H38V7c0-2.761,2.239-5,5-5h10c2.761,0,5,2.239,5,5V12z"/>
	<rect x="48" y="-7" clip-path="url(#SVGID_4_)" fill="#A8C4C6" width="23" height="22"/>
</g>
<g>
	<defs>
		<rect id="SVGID_5_" width="96" height="96"/>
	</defs>
	<clipPath id="SVGID_6_">
		<use xlink:href="#SVGID_5_"  overflow="visible"/>
	</clipPath>
	<path clip-path="url(#SVGID_6_)" fill="#2D4D68" d="M58,14H38c-1.104,0-2-0.896-2-2V7c0-3.859,3.14-7,7-7h10c3.86,0,7,3.141,7,7v5
		C60,13.104,59.104,14,58,14 M40,10h16V7c0-1.654-1.346-3-3-3H43c-1.654,0-3,1.346-3,3V10z"/>
</g>
<g>
	<defs>
		<path id="SVGID_7_" d="M30.083,12C27.276,12,25,14.275,25,17.083v71.834C25,91.724,27.276,94,30.083,94h35.834
			C68.724,94,71,91.724,71,88.917V17.083C71,14.275,68.724,12,65.917,12H30.083z"/>
	</defs>
	<clipPath id="SVGID_8_">
		<use xlink:href="#SVGID_7_"  overflow="visible"/>
	</clipPath>
	<path clip-path="url(#SVGID_8_)" fill="#A8C4C6" d="M65.917,12H30.083C27.276,12,25,14.276,25,17.083v71.834
		C25,91.724,27.276,94,30.083,94h35.833C68.724,94,71,91.724,71,88.917V17.083C71,14.276,68.724,12,65.917,12"/>
	<rect x="48" y="-5" clip-path="url(#SVGID_8_)" fill="#567B8E" width="62" height="116"/>
</g>
<g>
	<defs>
		<rect id="SVGID_9_" width="96" height="96"/>
	</defs>
	<clipPath id="SVGID_10_">
		<use xlink:href="#SVGID_9_"  overflow="visible"/>
	</clipPath>
	<path clip-path="url(#SVGID_10_)" fill="#2D4D68" d="M65.916,96H30.083C26.178,96,23,92.822,23,88.917V17.083
		C23,13.178,26.178,10,30.083,10h35.833c3.906,0,7.085,3.178,7.085,7.083v71.834C73.001,92.822,69.822,96,65.916,96 M30.083,14
		C28.383,14,27,15.383,27,17.083v71.834c0,1.7,1.383,3.083,3.083,3.083h35.833c1.7,0,3.085-1.383,3.085-3.083V17.083
		c0-1.7-1.385-3.083-3.085-3.083H30.083z"/>
	<path clip-path="url(#SVGID_10_)" fill="#83EF60" d="M58,43H38V28c0-2.761,2.239-5,5-5h10c2.761,0,5,2.239,5,5V43z"/>
	<path clip-path="url(#SVGID_10_)" fill="#2D4D68" d="M58,45H38c-1.104,0-2-0.896-2-2V28c0-3.86,3.141-7,7-7h10c3.859,0,7,3.14,7,7
		v15C60,44.104,59.104,45,58,45 M40,41h16V28c0-1.654-1.346-3-3-3H43c-1.654,0-3,1.346-3,3V41z"/>
	<path clip-path="url(#SVGID_10_)" fill="#32AA77" d="M38,63h20v15c0,2.761-2.239,5-5,5H43c-2.761,0-5-2.239-5-5V63z"/>
	<path clip-path="url(#SVGID_10_)" fill="#2D4D68" d="M53,85H43c-3.859,0-7-3.14-7-7V63c0-1.104,0.896-2,2-2h20c1.104,0,2,0.896,2,2
		v15C60,81.86,56.859,85,53,85 M40,65v13c0,1.654,1.346,3,3,3h10c1.654,0,3-1.346,3-3V65H40z"/>
	<rect x="38" y="43" clip-path="url(#SVGID_10_)" fill="#32AA77" width="20" height="20"/>
	<path clip-path="url(#SVGID_10_)" fill="#2D4D68" d="M58,65H38c-1.104,0-2-0.896-2-2V43c0-1.104,0.896-2,2-2h20
		c1.104,0,2,0.896,2,2v20C60,64.104,59.104,65,58,65 M40,61h16V45H40V61z"/>
</g>
</svg>
