<?xml version="1.0" encoding="utf-8"?>
<!-- Generator: Adobe Illustrator 16.0.0, SVG Export Plug-In . SVG Version: 6.00 Build 0)  -->
<!DOCTYPE svg PUBLIC "-//W3C//DTD SVG 1.1//EN" "http://www.w3.org/Graphics/SVG/1.1/DTD/svg11.dtd">
<svg version="1.1" id="Layer_1" xmlns="http://www.w3.org/2000/svg" xmlns:xlink="http://www.w3.org/1999/xlink" x="0px" y="0px"
	 width="96px" height="96px" viewBox="0 0 96 96" enable-background="new 0 0 96 96" xml:space="preserve">
<rect fill="#F7F7F7" width="96" height="96"/>
<g>
	<defs>
		<rect id="SVGID_1_" width="96" height="96"/>
	</defs>
	<clipPath id="SVGID_2_">
		<use xlink:href="#SVGID_1_"  overflow="visible"/>
	</clipPath>
</g>
<g>
	<defs>
		<path id="SVGID_3_" d="M51,28c0,5.523,4.477,10,10,10s10-4.477,10-10s-4.477-10-10-10S51,22.477,51,28"/>
	</defs>
	<clipPath id="SVGID_4_">
		<use xlink:href="#SVGID_3_"  overflow="visible"/>
	</clipPath>
</g>
<g>
	<defs>
		<rect id="SVGID_5_" width="96" height="96"/>
	</defs>
	<clipPath id="SVGID_6_">
		<use xlink:href="#SVGID_5_"  overflow="visible"/>
	</clipPath>
</g>
<rect x="28" y="23" fill="#FFFFFF" width="66" height="10"/>
<g>
	<defs>
		<rect id="SVGID_7_" width="96" height="96"/>
	</defs>
	<clipPath id="SVGID_8_">
		<use xlink:href="#SVGID_7_"  overflow="visible"/>
	</clipPath>
	<path clip-path="url(#SVGID_8_)" fill="#2D4D68" d="M94,35H28c-1.104,0-2-0.896-2-2V23c0-1.104,0.896-2,2-2h66c1.104,0,2,0.896,2,2
		v10C96,34.104,95.104,35,94,35 M30,31h62v-6H30V31z"/>
</g>
<g>
	<defs>
		<rect id="SVGID_9_" x="55" y="34" width="12" height="60"/>
	</defs>
	<clipPath id="SVGID_10_">
		<use xlink:href="#SVGID_9_"  overflow="visible"/>
	</clipPath>
	<rect x="55" y="34" clip-path="url(#SVGID_10_)" fill="#A8C4C6" width="12" height="60"/>
	<path clip-path="url(#SVGID_10_)" fill="#567B8E" d="M66,42V30H56v12c0,2.761,2.239,5,5,5S66,44.761,66,42"/>
</g>
<g>
	<defs>
		<rect id="SVGID_11_" width="96" height="96"/>
	</defs>
	<clipPath id="SVGID_12_">
		<use xlink:href="#SVGID_11_"  overflow="visible"/>
	</clipPath>
	<path clip-path="url(#SVGID_12_)" fill="#2D4D68" d="M67,96H55c-1.104,0-2-0.896-2-2V34c0-1.104,0.896-2,2-2h12
		c1.104,0,2,0.896,2,2v60C69,95.104,68.104,96,67,96 M57,92h8V36h-8V92z"/>
</g>
<g>
	<defs>
		<rect id="SVGID_13_" x="82" y="68" width="12" height="26"/>
	</defs>
	<clipPath id="SVGID_14_">
		<use xlink:href="#SVGID_13_"  overflow="visible"/>
	</clipPath>
	<rect x="82" y="68" clip-path="url(#SVGID_14_)" fill="#567B8E" width="12" height="26"/>
	<rect x="82" y="48" clip-path="url(#SVGID_14_)" fill="#A8C4C6" width="12" height="26"/>
</g>
<g>
	<defs>
		<rect id="SVGID_15_" width="96" height="96"/>
	</defs>
	<clipPath id="SVGID_16_">
		<use xlink:href="#SVGID_15_"  overflow="visible"/>
	</clipPath>
	<path clip-path="url(#SVGID_16_)" fill="#2D4D68" d="M94,96H82c-1.104,0-2-0.896-2-2V68c0-1.104,0.896-2,2-2h12
		c1.104,0,2,0.896,2,2v26C96,95.104,95.104,96,94,96 M84,92h8V70h-8V92z"/>
</g>
<g>
	<defs>
		<path id="SVGID_17_" d="M2,28c0,14.359,11.64,26,26,26V2C13.64,2,2,13.641,2,28"/>
	</defs>
	<clipPath id="SVGID_18_">
		<use xlink:href="#SVGID_17_"  overflow="visible"/>
	</clipPath>
	<path clip-path="url(#SVGID_18_)" fill="#A8C4C6" d="M28,54C13.641,54,2,42.359,2,28S13.641,2,28,2V54z"/>
	<path clip-path="url(#SVGID_18_)" fill="#567B8E" d="M28,69C13.641,69,2,57.359,2,43c0-14.359,11.641-26,26-26V69z"/>
</g>
<g>
	<defs>
		<rect id="SVGID_19_" width="96" height="96"/>
	</defs>
	<clipPath id="SVGID_20_">
		<use xlink:href="#SVGID_19_"  overflow="visible"/>
	</clipPath>
	<path clip-path="url(#SVGID_20_)" fill="#2D4D68" d="M28,56C12.561,56,0,43.439,0,28S12.561,0,28,0c1.104,0,2,0.895,2,2v52
		C30,55.104,29.104,56,28,56 M26,4.083C13.699,5.103,4,15.44,4,28s9.699,22.897,22,23.917V4.083z"/>
</g>
<g>
	<defs>
		<path id="SVGID_21_" d="M51,28c0,5.523,4.477,10,10,10s10-4.477,10-10s-4.477-10-10-10S51,22.477,51,28"/>
	</defs>
	<clipPath id="SVGID_22_">
		<use xlink:href="#SVGID_21_"  overflow="visible"/>
	</clipPath>
	<path clip-path="url(#SVGID_22_)" fill="#567B8E" d="M51,28c0,5.523,4.477,10,10,10s10-4.477,10-10s-4.477-10-10-10
		S51,22.477,51,28"/>
	<path clip-path="url(#SVGID_22_)" fill="#A8C4C6" d="M51,19c0,5.523,4.477,10,10,10s10-4.477,10-10S66.523,9,61,9S51,13.477,51,19"
		/>
</g>
<g>
	<defs>
		<rect id="SVGID_23_" width="96" height="96"/>
	</defs>
	<clipPath id="SVGID_24_">
		<use xlink:href="#SVGID_23_"  overflow="visible"/>
	</clipPath>
	<path clip-path="url(#SVGID_24_)" fill="#2D4D68" d="M61,40c-6.617,0-12-5.383-12-12s5.383-12,12-12s12,5.383,12,12
		S67.617,40,61,40 M61,20c-4.411,0-8,3.589-8,8s3.589,8,8,8s8-3.589,8-8S65.411,20,61,20"/>
	<line clip-path="url(#SVGID_24_)" fill="#FFFFFF" x1="88" y1="68" x2="88" y2="33"/>
	<path clip-path="url(#SVGID_24_)" fill="#2D4D68" d="M88,70c-1.104,0-2-0.896-2-2V33c0-1.104,0.896-2,2-2s2,0.896,2,2v35
		C90,69.104,89.104,70,88,70"/>
</g>
</svg>
