<?xml version="1.0" encoding="utf-8"?>
<!-- Generator: Adobe Illustrator 16.0.0, SVG Export Plug-In . SVG Version: 6.00 Build 0)  -->
<!DOCTYPE svg PUBLIC "-//W3C//DTD SVG 1.1//EN" "http://www.w3.org/Graphics/SVG/1.1/DTD/svg11.dtd">
<svg version="1.1" id="Layer_1" xmlns="http://www.w3.org/2000/svg" xmlns:xlink="http://www.w3.org/1999/xlink" x="0px" y="0px"
	 width="96px" height="96px" viewBox="0 0 96 96" enable-background="new 0 0 96 96" xml:space="preserve">
<rect fill="#F7F7F7" width="96" height="96"/>
<g>
	<defs>
		<rect id="SVGID_1_" width="96" height="96"/>
	</defs>
	<clipPath id="SVGID_2_">
		<use xlink:href="#SVGID_1_"  overflow="visible"/>
	</clipPath>
</g>
<g>
	<defs>
		<path id="SVGID_3_" d="M2,48c0,25.406,20.594,46,46,46c25.405,0,46-20.594,46-46C94,22.595,73.405,2,48,2C22.594,2,2,22.595,2,48"
			/>
	</defs>
	<clipPath id="SVGID_4_">
		<use xlink:href="#SVGID_3_"  overflow="visible"/>
	</clipPath>
	<path clip-path="url(#SVGID_4_)" fill="#5AADE0" d="M94,48C94,22.595,73.405,2,48,2C22.595,2,2,22.595,2,48
		c0,25.405,20.595,46,46,46C73.405,94,94,73.405,94,48"/>
	<path clip-path="url(#SVGID_4_)" fill="#AAE1ED" d="M79,33c0-25.405-20.595-46-46-46C7.595-13-13,7.595-13,33
		c0,25.405,20.595,46,46,46C58.405,79,79,58.405,79,33"/>
</g>
<g>
	<defs>
		<path id="SVGID_5_" d="M2,48c0,21.986,15.43,40.359,36.049,44.908C39.293,90.546,40,87.856,40,85c0-9.389-7.611-17-17-17
			c-7.732,0-14-6.268-14-14c0-7.732,6.268-14,14-14c5.523,0,10-4.477,10-10V20c0-5.523,4.477-10,10-10
			c4.751,0,8.721-3.316,9.74-7.758C51.181,2.082,49.601,2,48,2C22.594,2,2,22.595,2,48"/>
	</defs>
	<clipPath id="SVGID_6_">
		<use xlink:href="#SVGID_5_"  overflow="visible"/>
	</clipPath>
	<path clip-path="url(#SVGID_6_)" fill="#32AA77" d="M23,40c5.523,0,10-4.477,10-10V20c0-5.523,4.477-10,10-10
		c4.751,0,8.721-3.316,9.74-7.758C51.181,2.083,49.6,2,48,2C22.595,2,2,22.595,2,48c0,21.987,15.43,40.359,36.049,44.908
		C39.293,90.546,40,87.856,40,85c0-9.389-7.611-17-17-17c-7.732,0-14-6.268-14-14C9,46.268,15.268,40,23,40"/>
	<path clip-path="url(#SVGID_6_)" fill="#83EF60" d="M79,33c0-25.405-20.595-46-46-46C7.595-13-13,7.595-13,33
		c0,25.405,20.595,46,46,46C58.405,79,79,58.405,79,33"/>
</g>
<g>
	<defs>
		<rect id="SVGID_7_" width="96" height="96"/>
	</defs>
	<clipPath id="SVGID_8_">
		<use xlink:href="#SVGID_7_"  overflow="visible"/>
	</clipPath>
	<path clip-path="url(#SVGID_8_)" fill="#2D4D68" d="M38.049,94.908c-0.143,0-0.287-0.016-0.431-0.047C15.821,90.053,0,70.345,0,48
		C0,21.533,21.533,0,48,0c1.64,0,3.303,0.085,4.943,0.253c0.57,0.058,1.089,0.358,1.423,0.824c0.334,0.466,0.451,1.054,0.323,1.612
		C53.431,8.171,48.625,12,43,12c-4.411,0-8,3.589-8,8v10c0,6.617-5.383,12-12,12s-12,5.383-12,12s5.383,12,12,12
		c10.477,0,19,8.523,19,19c0,3.074-0.754,6.132-2.182,8.841C39.467,94.507,38.779,94.908,38.049,94.908 M48,4
		C23.738,4,4,23.738,4,48c0,19.947,13.754,37.603,32.926,42.582C37.639,88.814,38,86.943,38,85c0-8.271-6.729-15-15-15
		c-8.822,0-16-7.178-16-16c0-8.822,7.178-16,16-16c4.411,0,8-3.589,8-8V20c0-6.617,5.383-12,12-12c2.92,0,5.509-1.548,6.907-3.959
		C49.27,4.014,48.633,4,48,4"/>
</g>
<g>
	<defs>
		<path id="SVGID_9_" d="M84,19.999c-2.429,1.825-4,4.729-4,8.001v10c0,5.523-4.477,10-10,10s-10,4.477-10,10s4.477,10,10,10
			s10,4.478,10,10v3l0.01,0.02C88.633,72.658,94,60.959,94,48c0-10.571-3.574-20.302-9.569-28.071L84,19.999z"/>
	</defs>
	<clipPath id="SVGID_10_">
		<use xlink:href="#SVGID_9_"  overflow="visible"/>
	</clipPath>
	<path clip-path="url(#SVGID_10_)" fill="#32AA77" d="M80,28v10c0,5.523-4.477,10-10,10s-10,4.477-10,10s4.477,10,10,10
		s10,4.477,10,10v3l0.01,0.02C88.633,72.659,94,60.959,94,48c0-10.571-3.575-20.302-9.569-28.07L84,20
		C81.571,21.824,80,24.729,80,28"/>
	<path clip-path="url(#SVGID_10_)" fill="#83EF60" d="M79,33c0-25.405-20.595-46-46-46C7.595-13-13,7.595-13,33
		c0,25.405,20.595,46,46,46C58.405,79,79,58.405,79,33"/>
</g>
<g>
	<defs>
		<rect id="SVGID_11_" width="96" height="96"/>
	</defs>
	<clipPath id="SVGID_12_">
		<use xlink:href="#SVGID_11_"  overflow="visible"/>
	</clipPath>
	<path clip-path="url(#SVGID_12_)" fill="#2D4D68" d="M80.011,83.02c-0.105,0-0.211-0.008-0.316-0.025
		c-0.623-0.1-1.162-0.486-1.455-1.045C78.089,81.662,78,81.324,78,81v-3c0-4.411-3.589-8-8-8c-6.616,0-12-5.383-12-12
		s5.384-12,12-12c4.411,0,8-3.589,8-8V28c0-3.81,1.749-7.309,4.799-9.6c0.259-0.193,0.56-0.322,0.879-0.374l0.432-0.07
		c0.725-0.12,1.456,0.171,1.905,0.752C92.547,27.174,96,37.304,96,48c0,13.091-5.185,25.327-14.598,34.455
		C81.026,82.82,80.525,83.02,80.011,83.02 M83.997,22.708C82.713,24.154,82,26.014,82,28v10c0,6.617-5.384,12-12,12
		c-4.411,0-8,3.589-8,8s3.589,8,8,8c5.972,0,10.938,4.384,11.851,10.103C88.427,68.222,92,58.404,92,48
		C92,38.843,89.239,30.14,83.997,22.708"/>
	<path clip-path="url(#SVGID_12_)" fill="#2D4D68" d="M48,96C21.533,96,0,74.467,0,48S21.533,0,48,0s48,21.533,48,48
		S74.467,96,48,96 M48,4C23.738,4,4,23.738,4,48c0,24.262,19.738,44,44,44c24.262,0,44-19.738,44-44C92,23.738,72.262,4,48,4"/>
</g>
</svg>
