<?xml version="1.0" encoding="utf-8"?>
<!-- Generator: Adobe Illustrator 16.0.0, SVG Export Plug-In . SVG Version: 6.00 Build 0)  -->
<!DOCTYPE svg PUBLIC "-//W3C//DTD SVG 1.1//EN" "http://www.w3.org/Graphics/SVG/1.1/DTD/svg11.dtd">
<svg version="1.1" id="Layer_1" xmlns="http://www.w3.org/2000/svg" xmlns:xlink="http://www.w3.org/1999/xlink" x="0px" y="0px"
	 width="96px" height="96px" viewBox="0 0 96 96" enable-background="new 0 0 96 96" xml:space="preserve">
<rect fill="#F7F7F7" width="96" height="96"/>
<g>
	<defs>
		<rect id="SVGID_1_" width="96" height="96"/>
	</defs>
	<clipPath id="SVGID_2_">
		<use xlink:href="#SVGID_1_"  overflow="visible"/>
	</clipPath>
</g>
<g>
	<defs>
		<rect id="SVGID_3_" width="96" height="96"/>
	</defs>
	<clipPath id="SVGID_4_">
		<use xlink:href="#SVGID_3_"  overflow="visible"/>
	</clipPath>
	<path clip-path="url(#SVGID_4_)" fill="#32AA77" d="M23.071,72L23.071,72c-3.905-3.905-10.237-3.905-14.142,0l-4.358,4.358
		c-3.905,3.904-3.905,10.236,0,14.142c3.905,3.905,10.237,3.905,14.142,0l4.358-4.358C26.976,82.237,26.976,75.905,23.071,72"/>
	<path clip-path="url(#SVGID_4_)" fill="#2D4D68" d="M11.642,95.43c-3.205,0-6.219-1.249-8.485-3.516
		c-4.679-4.679-4.679-12.292,0-16.971l4.358-4.357c4.678-4.68,12.292-4.68,16.97,0c4.679,4.679,4.679,12.292,0,16.971l-4.358,4.357
		C17.861,94.181,14.848,95.43,11.642,95.43 M16,71.075c-2.049,0-4.097,0.779-5.657,2.339l-4.358,4.357
		c-3.119,3.119-3.119,8.195,0,11.314c1.512,1.511,3.52,2.344,5.657,2.344c2.137,0,4.146-0.833,5.657-2.344l4.358-4.357
		c3.119-3.119,3.119-8.195,0-11.314C20.098,71.854,18.049,71.075,16,71.075"/>
	<path clip-path="url(#SVGID_4_)" fill="#32AA77" d="M48,2C22.595,2,2,22.595,2,48c0,25.405,20.595,46,46,46
		c25.405,0,46-20.595,46-46V2H48z"/>
	<path clip-path="url(#SVGID_4_)" fill="#2D4D68" d="M48,96C21.533,96,0,74.467,0,48S21.533,0,48,0h46c1.104,0,2,0.896,2,2v46
		C96,74.467,74.467,96,48,96 M48,4C23.738,4,4,23.738,4,48c0,24.262,19.738,44,44,44c24.262,0,44-19.738,44-44V4H48z"/>
	<path clip-path="url(#SVGID_4_)" fill="#83EF60" d="M15.001,80.048C23.36,88.653,35.056,94,48,94c25.405,0,46-20.595,46-46V2
		C94,2,25.024,70.024,15.001,80.048"/>
	<path clip-path="url(#SVGID_4_)" fill="#2D4D68" d="M48,96c-13.086,0-25.315-5.17-34.434-14.559
		c-0.762-0.784-0.752-2.035,0.021-2.808C23.5,68.72,91.905,1.256,92.596,0.576c0.574-0.566,1.432-0.731,2.177-0.421
		C95.516,0.466,96,1.193,96,2v46C96,74.467,74.468,96,48,96 M17.841,80.04C26.031,87.768,36.666,92,48,92c24.262,0,44-19.738,44-44
		V6.782C78.604,19.996,29.723,68.217,17.841,80.04"/>
	<path clip-path="url(#SVGID_4_)" fill="#2D4D68" d="M77,44H54c-1.104,0-2-0.896-2-2V19c0-1.104,0.896-2,2-2s2,0.896,2,2v21h21
		c1.104,0,2,0.896,2,2S78.104,44,77,44"/>
	<path clip-path="url(#SVGID_4_)" fill="#2D4D68" d="M67,66H32c-1.104,0-2-0.896-2-2V29c0-1.104,0.896-2,2-2s2,0.896,2,2v33h33
		c1.104,0,2,0.896,2,2S68.104,66,67,66"/>
	<line clip-path="url(#SVGID_4_)" fill="#FFFFFF" x1="15" y1="81" x2="93" y2="3"/>
	<path clip-path="url(#SVGID_4_)" fill="#2D4D68" d="M15,83c-0.512,0-1.024-0.195-1.414-0.586c-0.781-0.781-0.781-2.047,0-2.828
		l78-78c0.78-0.781,2.048-0.781,2.828,0c0.781,0.781,0.781,2.047,0,2.828l-78,78C16.024,82.805,15.512,83,15,83"/>
</g>
</svg>
