<?xml version="1.0" encoding="utf-8"?>
<!-- Generator: Adobe Illustrator 16.0.0, SVG Export Plug-In . SVG Version: 6.00 Build 0)  -->
<!DOCTYPE svg PUBLIC "-//W3C//DTD SVG 1.1//EN" "http://www.w3.org/Graphics/SVG/1.1/DTD/svg11.dtd">
<svg version="1.1" id="Layer_1" xmlns="http://www.w3.org/2000/svg" xmlns:xlink="http://www.w3.org/1999/xlink" x="0px" y="0px"
	 width="96px" height="96px" viewBox="0 0 96 96" enable-background="new 0 0 96 96" xml:space="preserve">
<rect fill="#F7F7F7" width="96" height="96"/>
<g>
	<defs>
		<rect id="SVGID_1_" width="96" height="96"/>
	</defs>
	<clipPath id="SVGID_2_">
		<use xlink:href="#SVGID_1_"  overflow="visible"/>
	</clipPath>
</g>
<g>
	<defs>
		<rect id="SVGID_3_" width="96" height="96"/>
	</defs>
	<clipPath id="SVGID_4_">
		<use xlink:href="#SVGID_3_"  overflow="visible"/>
	</clipPath>
	<path clip-path="url(#SVGID_4_)" fill="#FFFFFF" d="M86,40C86,19.013,68.987,2,48,2C27.013,2,10,19.013,10,40
		c0,20.987,17.013,38,38,38C68.987,78,86,60.987,86,40"/>
</g>
<g>
	<defs>
		<path id="SVGID_5_" d="M10,40c0,20.986,17.014,38,38,38c20.987,0,38-17.014,38-38C86,19.013,68.987,2,48,2
			C27.014,2,10,19.013,10,40"/>
	</defs>
	<clipPath id="SVGID_6_">
		<use xlink:href="#SVGID_5_"  overflow="visible"/>
	</clipPath>
	<path clip-path="url(#SVGID_6_)" fill="#A8C4C6" d="M86,40C86,19.013,68.987,2,48,2C27.013,2,10,19.013,10,40
		c0,20.987,17.013,38,38,38C68.987,78,86,60.987,86,40"/>
	<path clip-path="url(#SVGID_6_)" fill="#FFFFFF" d="M78,32C78,11.013,60.987-6,40-6C19.013-6,2,11.013,2,32
		c0,20.987,17.013,38,38,38C60.987,70,78,52.987,78,32"/>
	<path clip-path="url(#SVGID_6_)" fill="#FFFFFF" d="M92.284,46.036c0-20.987-17.013-38-38-38c-20.987,0-38,17.013-38,38
		c0,20.987,17.013,38,38,38c7.551,0-80.915,36.797-75,33c2.646-1.699,11.857-134.717,14-137c2.942-3.135,133.234-5.299,123-7
		C104.327-28.951,92.284,51.455,92.284,46.036"/>
</g>
<g>
	<defs>
		<rect id="SVGID_7_" width="96" height="96"/>
	</defs>
	<clipPath id="SVGID_8_">
		<use xlink:href="#SVGID_7_"  overflow="visible"/>
	</clipPath>
	<path clip-path="url(#SVGID_8_)" fill="#2D4D68" d="M48,80C25.944,80,8,62.056,8,40C8,17.944,25.944,0,48,0
		c22.056,0,40,17.944,40,40C88,62.056,70.056,80,48,80 M48,4C28.149,4,12,20.149,12,40c0,19.851,16.149,36,36,36
		c19.851,0,36-16.149,36-36C84,20.149,67.851,4,48,4"/>
	<path clip-path="url(#SVGID_8_)" fill="#FFFFFF" d="M72,61v23c0,5.523-4.477,10-10,10H34c-5.523,0-10-4.477-10-10V61"/>
</g>
<g>
	<defs>
		<path id="SVGID_9_" d="M24,61v23c0,5.523,4.477,10,10,10h28c5.523,0,10-4.477,10-10V61H24z"/>
	</defs>
	<clipPath id="SVGID_10_">
		<use xlink:href="#SVGID_9_"  overflow="visible"/>
	</clipPath>
	<path clip-path="url(#SVGID_10_)" fill="#A8C4C6" d="M72,61v23c0,5.523-4.477,10-10,10H34c-5.523,0-10-4.477-10-10V61"/>
	<path clip-path="url(#SVGID_10_)" fill="#FFFFFF" d="M65,55v23c0,5.523-4.477,10-10,10H27c-5.523,0-10-4.477-10-10V55"/>
</g>
<g>
	<defs>
		<rect id="SVGID_11_" width="96" height="96"/>
	</defs>
	<clipPath id="SVGID_12_">
		<use xlink:href="#SVGID_11_"  overflow="visible"/>
	</clipPath>
	<path clip-path="url(#SVGID_12_)" fill="#567B8E" d="M21,34c0,5.523,4.477,10,10,10s10-4.477,10-10s-4.477-10-10-10
		S21,28.477,21,34"/>
</g>
<g>
	<defs>
		<path id="SVGID_13_" d="M21,34c0,5.523,4.477,10,10,10s10-4.477,10-10s-4.477-10-10-10S21,28.477,21,34"/>
	</defs>
	<clipPath id="SVGID_14_">
		<use xlink:href="#SVGID_13_"  overflow="visible"/>
	</clipPath>
	<path clip-path="url(#SVGID_14_)" fill="#567B8E" d="M21,34c0,5.523,4.477,10,10,10s10-4.477,10-10s-4.477-10-10-10
		S21,28.477,21,34"/>
</g>
<g>
	<defs>
		<rect id="SVGID_15_" width="96" height="96"/>
	</defs>
	<clipPath id="SVGID_16_">
		<use xlink:href="#SVGID_15_"  overflow="visible"/>
	</clipPath>
	<path clip-path="url(#SVGID_16_)" fill="#567B8E" d="M55,34c0,5.523,4.477,10,10,10s10-4.477,10-10s-4.477-10-10-10
		S55,28.477,55,34"/>
	<path clip-path="url(#SVGID_16_)" fill="#2D4D68" d="M31,46c-6.617,0-12-5.383-12-12s5.383-12,12-12s12,5.383,12,12
		S37.617,46,31,46 M31,26c-4.411,0-8,3.589-8,8s3.589,8,8,8s8-3.589,8-8S35.411,26,31,26"/>
	<path clip-path="url(#SVGID_16_)" fill="#2D4D68" d="M65,46c-6.617,0-12-5.383-12-12s5.383-12,12-12s12,5.383,12,12
		S71.617,46,65,46 M65,26c-4.411,0-8,3.589-8,8s3.589,8,8,8s8-3.589,8-8S69.411,26,65,26"/>
	<path clip-path="url(#SVGID_16_)" fill="#2D4D68" d="M48,96c-1.104,0-2-0.896-2-2V77c0-1.104,0.896-2,2-2c1.104,0,2,0.896,2,2v17
		C50,95.104,49.104,96,48,96"/>
	<path clip-path="url(#SVGID_16_)" fill="#2D4D68" d="M60,96c-1.104,0-2-0.896-2-2V81c0-1.104,0.896-2,2-2s2,0.896,2,2v13
		C62,95.104,61.104,96,60,96"/>
	<path clip-path="url(#SVGID_16_)" fill="#2D4D68" d="M36,96c-1.104,0-2-0.896-2-2V81c0-1.104,0.896-2,2-2s2,0.896,2,2v13
		C38,95.104,37.104,96,36,96"/>
	<path clip-path="url(#SVGID_16_)" fill="#2D4D68" d="M62,96H34c-6.617,0-12-5.383-12-12V61c0-1.104,0.896-2,2-2s2,0.896,2,2v23
		c0,4.411,3.589,8,8,8h28c4.411,0,8-3.589,8-8V61c0-1.104,0.896-2,2-2s2,0.896,2,2v23C74,90.617,68.617,96,62,96"/>
</g>
</svg>
