<?xml version="1.0" encoding="utf-8"?>
<!-- Generator: Adobe Illustrator 16.0.0, SVG Export Plug-In . SVG Version: 6.00 Build 0)  -->
<!DOCTYPE svg PUBLIC "-//W3C//DTD SVG 1.1//EN" "http://www.w3.org/Graphics/SVG/1.1/DTD/svg11.dtd">
<svg version="1.1" id="Layer_1" xmlns="http://www.w3.org/2000/svg" xmlns:xlink="http://www.w3.org/1999/xlink" x="0px" y="0px"
	 width="96px" height="96px" viewBox="0 0 96 96" enable-background="new 0 0 96 96" xml:space="preserve">
<rect fill="#F7F7F7" width="96" height="96"/>
<g>
	<defs>
		<rect id="SVGID_1_" width="96" height="96"/>
	</defs>
	<clipPath id="SVGID_2_">
		<use xlink:href="#SVGID_1_"  overflow="visible"/>
	</clipPath>
</g>
<g>
	<defs>
		<rect id="SVGID_3_" width="96" height="96"/>
	</defs>
	<clipPath id="SVGID_4_">
		<use xlink:href="#SVGID_3_"  overflow="visible"/>
	</clipPath>
	<path clip-path="url(#SVGID_4_)" fill="#567B8E" d="M66,16c0,7.732,6.268,14,14,14s14-6.268,14-14S87.732,2,80,2S66,8.268,66,16"/>
	<path clip-path="url(#SVGID_4_)" fill="#2D4D68" d="M80,32c-8.822,0-16-7.178-16-16S71.178,0,80,0s16,7.178,16,16S88.822,32,80,32
		 M80,4c-6.617,0-12,5.383-12,12s5.383,12,12,12s12-5.383,12-12S86.617,4,80,4"/>
	<path clip-path="url(#SVGID_4_)" fill="#567B8E" d="M66,16c0,7.732,6.268,14,14,14s14-6.268,14-14S87.732,2,80,2S66,8.268,66,16"/>
	<path clip-path="url(#SVGID_4_)" fill="#2D4D68" d="M80,32c-8.822,0-16-7.178-16-16S71.178,0,80,0s16,7.178,16,16S88.822,32,80,32
		 M80,4c-6.617,0-12,5.383-12,12s5.383,12,12,12s12-5.383,12-12S86.617,4,80,4"/>
	<path clip-path="url(#SVGID_4_)" fill="#567B8E" d="M66,16c0,7.732,6.268,14,14,14s14-6.268,14-14S87.732,2,80,2S66,8.268,66,16"/>
	<path clip-path="url(#SVGID_4_)" fill="#2D4D68" d="M80,32c-8.822,0-16-7.178-16-16S71.178,0,80,0s16,7.178,16,16S88.822,32,80,32
		 M80,4c-6.617,0-12,5.383-12,12s5.383,12,12,12s12-5.383,12-12S86.617,4,80,4"/>
	<path clip-path="url(#SVGID_4_)" fill="#FFFFFF" d="M87.088,28.058C91.219,25.625,94,21.142,94,16c0-1.782-0.347-3.48-0.953-5.047
		L81.515,22.485L87.088,28.058z"/>
	<path clip-path="url(#SVGID_4_)" fill="#2D4D68" d="M87.088,30.059c-0.517,0-1.028-0.2-1.414-0.586l-5.573-5.573
		c-0.781-0.781-0.781-2.047,0-2.828L91.633,9.54c0.479-0.479,1.163-0.683,1.826-0.543c0.662,0.139,1.208,0.604,1.452,1.234
		C95.635,12.093,96,14.035,96,16c0,5.631-3.025,10.912-7.896,13.781C87.787,29.967,87.437,30.059,87.088,30.059 M84.344,22.485
		l2.992,2.993C90.244,23.22,92,19.711,92,16c0-0.374-0.018-0.747-0.053-1.119L84.344,22.485z"/>
	<path clip-path="url(#SVGID_4_)" fill="#FFFFFF" d="M72.808,16.192L85.754,3.247C83.997,2.453,82.053,2,80,2
		c-5.781,0-10.742,3.505-12.878,8.506L72.808,16.192z"/>
	<path clip-path="url(#SVGID_4_)" fill="#2D4D68" d="M72.808,18.192c-0.511,0-1.024-0.195-1.414-0.586l-5.687-5.686
		c-0.576-0.578-0.746-1.448-0.425-2.2C67.805,3.815,73.581,0,80,0c2.273,0,4.486,0.479,6.577,1.424
		c0.599,0.271,1.026,0.818,1.144,1.464c0.119,0.646-0.089,1.309-0.554,1.773L74.222,17.606
		C73.831,17.998,73.319,18.192,72.808,18.192 M69.548,10.104l3.26,3.26l9.194-9.194C81.344,4.057,80.676,4,80,4
		C75.632,4,71.658,6.356,69.548,10.104"/>
	<path clip-path="url(#SVGID_4_)" fill="#2D4D68" d="M22,24H2c-1.104,0-2-0.896-2-2s0.896-2,2-2h18V2c0-1.104,0.896-2,2-2
		s2,0.896,2,2v20C24,23.104,23.104,24,22,24"/>
	<path clip-path="url(#SVGID_4_)" fill="#2D4D68" d="M74,96c-1.104,0-2-0.896-2-2V74c0-1.104,0.896-2,2-2h20c1.104,0,2,0.896,2,2
		s-0.896,2-2,2H76v18C76,95.104,75.104,96,74,96"/>
</g>
<g>
	<defs>
		<path id="SVGID_5_" d="M2,48c0,25.406,20.594,46,46,46c25.405,0,46-20.594,46-46C94,22.595,73.405,2,48,2C22.594,2,2,22.595,2,48"
			/>
	</defs>
	<clipPath id="SVGID_6_">
		<use xlink:href="#SVGID_5_"  overflow="visible"/>
	</clipPath>
	<path clip-path="url(#SVGID_6_)" fill="#C05055" d="M94,48C94,22.595,73.405,2,48,2C22.595,2,2,22.595,2,48
		c0,25.405,20.595,46,46,46C73.405,94,94,73.405,94,48"/>
	<path clip-path="url(#SVGID_6_)" fill="#FF514D" d="M76,30c0-25.405-20.595-46-46-46C4.595-16-16,4.595-16,30
		c0,25.405,20.595,46,46,46C55.405,76,76,55.405,76,30"/>
</g>
<g>
	<defs>
		<rect id="SVGID_7_" width="96" height="96"/>
	</defs>
	<clipPath id="SVGID_8_">
		<use xlink:href="#SVGID_7_"  overflow="visible"/>
	</clipPath>
	<path clip-path="url(#SVGID_8_)" fill="#567B8E" d="M92.716,37.216C88.693,20.476,75.523,7.307,58.784,3.284
		C62.808,20.023,75.977,33.193,92.716,37.216"/>
	<path clip-path="url(#SVGID_8_)" fill="#2D4D68" d="M92.716,39.216c-0.155,0-0.312-0.018-0.467-0.055
		c-17.342-4.168-31.242-18.067-35.41-35.41c-0.163-0.677,0.038-1.389,0.531-1.881c0.492-0.493,1.207-0.693,1.881-0.531
		c17.342,4.168,31.242,18.068,35.41,35.41c0.163,0.677-0.038,1.389-0.531,1.881C93.751,39.01,93.24,39.216,92.716,39.216
		 M61.686,6.186c4.344,13.203,14.927,23.786,28.129,28.128C85.471,21.112,74.888,10.529,61.686,6.186"/>
	<path clip-path="url(#SVGID_8_)" fill="#567B8E" d="M34,24c0,5.523,4.477,10,10,10c5.523,0,10-4.477,10-10s-4.477-10-10-10
		C38.477,14,34,18.477,34,24"/>
	<path clip-path="url(#SVGID_8_)" fill="#2D4D68" d="M44,36c-6.617,0-12-5.383-12-12s5.383-12,12-12s12,5.383,12,12S50.617,36,44,36
		 M44,16c-4.411,0-8,3.589-8,8s3.589,8,8,8s8-3.589,8-8S48.411,16,44,16"/>
</g>
<g>
	<defs>
		<path id="SVGID_9_" d="M62,52c0,5.523,4.477,10,10,10c5.522,0,10-4.477,10-10c0-5.523-4.478-10-10-10C66.477,42,62,46.477,62,52"
			/>
	</defs>
	<clipPath id="SVGID_10_">
		<use xlink:href="#SVGID_9_"  overflow="visible"/>
	</clipPath>
	<path clip-path="url(#SVGID_10_)" fill="#567B8E" d="M62,52c0,5.523,4.477,10,10,10s10-4.477,10-10c0-5.523-4.477-10-10-10
		S62,46.477,62,52"/>
</g>
<g>
	<defs>
		<rect id="SVGID_11_" width="96" height="96"/>
	</defs>
	<clipPath id="SVGID_12_">
		<use xlink:href="#SVGID_11_"  overflow="visible"/>
	</clipPath>
	
		<rect x="41" y="13.402" transform="matrix(0.7071 0.7071 -0.7071 0.7071 50.0711 -14.8822)" clip-path="url(#SVGID_12_)" fill="#2D4D68" width="4" height="79.196"/>
	<path clip-path="url(#SVGID_12_)" fill="#567B8E" d="M20,66c0,5.523,4.477,10,10,10s10-4.477,10-10s-4.477-10-10-10
		S20,60.477,20,66"/>
	<path clip-path="url(#SVGID_12_)" fill="#2D4D68" d="M30,78c-6.617,0-12-5.383-12-12s5.383-12,12-12s12,5.383,12,12
		S36.617,78,30,78 M30,58c-4.411,0-8,3.589-8,8s3.589,8,8,8s8-3.589,8-8S34.411,58,30,58"/>
	<path clip-path="url(#SVGID_12_)" fill="#2D4D68" d="M48,96C21.533,96,0,74.467,0,48S21.533,0,48,0s48,21.533,48,48
		S74.467,96,48,96 M48,4C23.738,4,4,23.738,4,48c0,24.262,19.738,44,44,44c24.262,0,44-19.738,44-44C92,23.738,72.262,4,48,4"/>
	<path clip-path="url(#SVGID_12_)" fill="#2D4D68" d="M72,64c-6.617,0-12-5.383-12-12s5.383-12,12-12s12,5.383,12,12
		S78.617,64,72,64 M72,44c-4.411,0-8,3.589-8,8s3.589,8,8,8s8-3.589,8-8S76.411,44,72,44"/>
</g>
</svg>
