<?xml version="1.0" encoding="utf-8"?>
<!-- Generator: Adobe Illustrator 16.0.0, SVG Export Plug-In . SVG Version: 6.00 Build 0)  -->
<!DOCTYPE svg PUBLIC "-//W3C//DTD SVG 1.1//EN" "http://www.w3.org/Graphics/SVG/1.1/DTD/svg11.dtd">
<svg version="1.1" id="Layer_1" xmlns="http://www.w3.org/2000/svg" xmlns:xlink="http://www.w3.org/1999/xlink" x="0px" y="0px"
	 width="96px" height="96px" viewBox="0 0 96 96" enable-background="new 0 0 96 96" xml:space="preserve">
<rect fill="#F7F7F7" width="96" height="96"/>
<g>
	<defs>
		<rect id="SVGID_1_" width="96" height="96"/>
	</defs>
	<clipPath id="SVGID_2_">
		<use xlink:href="#SVGID_1_"  overflow="visible"/>
	</clipPath>
</g>
<g>
	<defs>
		<rect id="SVGID_3_" width="96" height="96"/>
	</defs>
	<clipPath id="SVGID_4_">
		<use xlink:href="#SVGID_3_"  overflow="visible"/>
	</clipPath>
	<path clip-path="url(#SVGID_4_)" fill="#567B8E" d="M25,57v28c0,2.761,2.239,5,5,5c2.761,0,5-2.239,5-5V57c0-2.761-2.239-5-5-5
		C27.239,52,25,54.239,25,57"/>
	<path clip-path="url(#SVGID_4_)" fill="#2D4D68" d="M30,92c-3.86,0-7-3.14-7-7V57c0-3.86,3.14-7,7-7s7,3.14,7,7v28
		C37,88.86,33.86,92,30,92 M30,54c-1.654,0-3,1.346-3,3v28c0,1.654,1.346,3,3,3s3-1.346,3-3V57C33,55.346,31.654,54,30,54"/>
	<path clip-path="url(#SVGID_4_)" fill="#567B8E" d="M61,57v28c0,2.761,2.239,5,5,5s5-2.239,5-5V57c0-2.761-2.239-5-5-5
		S61,54.239,61,57"/>
	<path clip-path="url(#SVGID_4_)" fill="#2D4D68" d="M66,92c-3.86,0-7-3.14-7-7V57c0-3.86,3.14-7,7-7s7,3.14,7,7v28
		C73,88.86,69.86,92,66,92 M66,54c-1.654,0-3,1.346-3,3v28c0,1.654,1.346,3,3,3s3-1.346,3-3V57C69,55.346,67.654,54,66,54"/>
	<rect x="11" y="52" clip-path="url(#SVGID_4_)" fill="#A8C4C6" width="74" height="10"/>
	<path clip-path="url(#SVGID_4_)" fill="#2D4D68" d="M85,64H11c-1.104,0-2-0.896-2-2V52c0-1.104,0.896-2,2-2h74c1.104,0,2,0.896,2,2
		v10C87,63.104,86.104,64,85,64 M13,60h70v-6H13V60z"/>
	<rect x="43" y="12" clip-path="url(#SVGID_4_)" fill="#FF514D" width="10" height="10"/>
	<path clip-path="url(#SVGID_4_)" fill="#2D4D68" d="M53,24H43c-1.104,0-2-0.896-2-2V12c0-1.104,0.896-2,2-2h10c1.104,0,2,0.896,2,2
		v10C55,23.104,54.104,24,53,24 M45,20h6v-6h-6V20z"/>
	<rect x="43" y="22" clip-path="url(#SVGID_4_)" fill="#FFFFFF" width="10" height="10"/>
	<path clip-path="url(#SVGID_4_)" fill="#2D4D68" d="M53,34H43c-1.104,0-2-0.896-2-2V22c0-1.104,0.896-2,2-2h10c1.104,0,2,0.896,2,2
		v10C55,33.104,54.104,34,53,34 M45,30h6v-6h-6V30z"/>
	<rect x="25" y="12" clip-path="url(#SVGID_4_)" fill="#FFFFFF" width="10" height="20"/>
	<path clip-path="url(#SVGID_4_)" fill="#2D4D68" d="M35,34H25c-1.104,0-2-0.896-2-2V12c0-1.104,0.896-2,2-2h10c1.104,0,2,0.896,2,2
		v20C37,33.104,36.104,34,35,34 M27,30h6V14h-6V30z"/>
	<rect x="25" y="2" clip-path="url(#SVGID_4_)" fill="#FF514D" width="10" height="10"/>
	<path clip-path="url(#SVGID_4_)" fill="#2D4D68" d="M35,14H25c-1.104,0-2-0.896-2-2V2c0-1.104,0.896-2,2-2h10c1.104,0,2,0.896,2,2
		v10C37,13.104,36.104,14,35,14 M27,10h6V4h-6V10z"/>
	<path clip-path="url(#SVGID_4_)" fill="#5AADE0" d="M2,94c0-12.703,10.297-23,23-23v23c0-12.703,10.297-23,23-23v23
		c0-12.703,10.297-23,23-23v23c0-12.703,10.297-23,23-23v23H2z"/>
	<path clip-path="url(#SVGID_4_)" fill="#2D4D68" d="M94,96H2c-1.105,0-2-0.896-2-2c0-13.785,11.215-25,25-25c1.104,0,2,0.896,2,2
		v9.448C31.457,73.564,39.206,69,48,69c1.104,0,2,0.896,2,2v9.448C54.457,73.564,62.206,69,71,69c1.104,0,2,0.896,2,2v9.448
		C77.457,73.564,85.206,69,94,69c1.104,0,2,0.896,2,2v23C96,95.104,95.104,96,94,96 M73.094,92H92V73.094
		C82.012,74.042,74.042,82.013,73.094,92 M50.094,92H69V73.094C59.012,74.042,51.042,82.013,50.094,92 M27.094,92H46V73.094
		C36.012,74.042,28.042,82.013,27.094,92 M4.094,92H23V73.094C13.012,74.042,5.042,82.013,4.094,92"/>
	<rect x="25" y="32" clip-path="url(#SVGID_4_)" fill="#C05055" width="10" height="20"/>
	<path clip-path="url(#SVGID_4_)" fill="#2D4D68" d="M35,54H25c-1.104,0-2-0.896-2-2V32c0-1.104,0.896-2,2-2h10c1.104,0,2,0.896,2,2
		v20C37,53.104,36.104,54,35,54 M27,50h6V34h-6V50z"/>
	<rect x="61" y="32" clip-path="url(#SVGID_4_)" fill="#C05055" width="10" height="20"/>
	<path clip-path="url(#SVGID_4_)" fill="#2D4D68" d="M71,54H61c-1.104,0-2-0.896-2-2V32c0-1.104,0.896-2,2-2h10c1.104,0,2,0.896,2,2
		v20C73,53.104,72.104,54,71,54 M63,50h6V34h-6V50z"/>
	<rect x="43" y="32" clip-path="url(#SVGID_4_)" fill="#C05055" width="10" height="20"/>
	<path clip-path="url(#SVGID_4_)" fill="#2D4D68" d="M53,54H43c-1.104,0-2-0.896-2-2V32c0-1.104,0.896-2,2-2h10c1.104,0,2,0.896,2,2
		v20C55,53.104,54.104,54,53,54 M45,50h6V34h-6V50z"/>
	<rect x="25" y="32" clip-path="url(#SVGID_4_)" fill="#FF514D" width="46" height="10"/>
	<path clip-path="url(#SVGID_4_)" fill="#2D4D68" d="M71,44H25c-1.104,0-2-0.896-2-2V32c0-1.104,0.896-2,2-2h46c1.104,0,2,0.896,2,2
		v10C73,43.104,72.104,44,71,44 M27,40h42v-6H27V40z"/>
</g>
</svg>
