<?xml version="1.0" encoding="utf-8"?>
<!-- Generator: Adobe Illustrator 16.0.0, SVG Export Plug-In . SVG Version: 6.00 Build 0)  -->
<!DOCTYPE svg PUBLIC "-//W3C//DTD SVG 1.1//EN" "http://www.w3.org/Graphics/SVG/1.1/DTD/svg11.dtd">
<svg version="1.1" id="Layer_1" xmlns="http://www.w3.org/2000/svg" xmlns:xlink="http://www.w3.org/1999/xlink" x="0px" y="0px"
	 width="96px" height="96px" viewBox="0 0 96 96" enable-background="new 0 0 96 96" xml:space="preserve">
<rect fill="#F7F7F7" width="96" height="96"/>
<g>
	<defs>
		<rect id="SVGID_1_" width="96" height="96"/>
	</defs>
	<clipPath id="SVGID_2_">
		<use xlink:href="#SVGID_1_"  overflow="visible"/>
	</clipPath>
</g>
<g>
	<defs>
		<rect id="SVGID_3_" width="96" height="96"/>
	</defs>
	<clipPath id="SVGID_4_">
		<use xlink:href="#SVGID_3_"  overflow="visible"/>
	</clipPath>
	<path clip-path="url(#SVGID_4_)" fill="#5AADE0" d="M94,48C94,22.595,73.405,2,48,2C22.595,2,2,22.595,2,48
		c0,25.405,20.595,46,46,46C73.405,94,94,73.405,94,48"/>
	<path clip-path="url(#SVGID_4_)" fill="#2D4D68" d="M48,96C21.533,96,0,74.467,0,48S21.533,0,48,0s48,21.533,48,48S74.467,96,48,96
		 M48,4C23.738,4,4,23.738,4,48c0,24.262,19.738,44,44,44c24.262,0,44-19.738,44-44C92,23.738,72.262,4,48,4"/>
	<path clip-path="url(#SVGID_4_)" fill="#32AA77" d="M23,40c5.523,0,10-4.477,10-10V20c0-5.523,4.477-10,10-10
		c4.751,0,8.721-3.316,9.74-7.758C51.181,2.083,49.6,2,48,2C22.595,2,2,22.595,2,48c0,21.987,15.43,40.359,36.049,44.908
		C39.293,90.546,40,87.856,40,85c0-9.389-7.611-17-17-17c-7.732,0-14-6.268-14-14C9,46.268,15.268,40,23,40"/>
	<path clip-path="url(#SVGID_4_)" fill="#2D4D68" d="M38.05,94.908c-0.144,0-0.288-0.016-0.432-0.047C15.82,90.053,0,70.345,0,48
		C0,21.533,21.532,0,48,0c1.64,0,3.303,0.085,4.942,0.253c0.57,0.058,1.089,0.358,1.423,0.824c0.334,0.466,0.451,1.053,0.323,1.612
		C53.432,8.171,48.625,12,43,12c-4.411,0-8,3.589-8,8v10c0,6.617-5.383,12-12,12s-12,5.383-12,12s5.383,12,12,12
		c10.477,0,19,8.523,19,19c0,3.073-0.754,6.13-2.182,8.84C39.468,94.507,38.779,94.908,38.05,94.908 M48,4C23.738,4,4,23.738,4,48
		c0,19.947,13.754,37.603,32.926,42.582C37.64,88.813,38,86.942,38,85c0-8.271-6.729-15-15-15c-8.822,0-16-7.178-16-16
		c0-8.822,7.178-16,16-16c4.411,0,8-3.589,8-8V20c0-6.617,5.383-12,12-12c2.92,0,5.509-1.548,6.907-3.959C49.27,4.014,48.633,4,48,4
		"/>
	<path clip-path="url(#SVGID_4_)" fill="#32AA77" d="M70,48c-5.523,0-10,4.477-10,10s4.477,10,10,10s10,4.477,10,10v3l0.01,0.02
		C88.633,72.659,94,60.959,94,48c0-10.571-3.575-20.302-9.569-28.07L84,20"/>
	<path clip-path="url(#SVGID_4_)" fill="#2D4D68" d="M80.01,83.02c-0.111,0-0.224-0.01-0.336-0.028
		c-0.628-0.107-1.168-0.507-1.453-1.077C78.082,81.637,78,81.311,78,80.999v-3c0-4.41-3.589-8-8-8c-6.617,0-12-5.382-12-12
		c0-6.616,5.383-12,12-12v4c-4.411,0-8,3.59-8,8c0,4.412,3.589,8,8,8c5.971,0,10.938,4.385,11.85,10.104
		C88.427,68.222,92,58.404,92,48c0-9.805-3.165-19.089-9.152-26.848l1.19-0.919l-0.36-2.206l0.431-0.07
		c0.727-0.118,1.458,0.17,1.905,0.751C92.547,27.172,96,37.303,96,48c0,13.091-5.185,25.328-14.598,34.456
		C81.025,82.82,80.525,83.02,80.01,83.02"/>
	<path clip-path="url(#SVGID_4_)" fill="#567B8E" d="M48,2C22.595,2,2,22.595,2,48c0,2.761,3.239,5,6,5s5-2.239,5-5
		c0-2.761,2.239-5,5-5s5,2.239,5,5c0,2.761,2.239,5,5,5s5-2.239,5-5c0-2.761,2.239-5,5-5s5,2.239,5,5c0,2.761,2.239,5,5,5
		c2.761,0,5-2.239,5-5c0-2.761,2.239-5,5-5s5,2.239,5,5c0,2.761,2.239,5,5,5s5-2.239,5-5c0-2.761,2.239-5,5-5s5,2.239,5,5
		c0,2.761,2.239,5,5,5s6-2.239,6-5C94,22.595,73.405,2,48,2"/>
	<path clip-path="url(#SVGID_4_)" fill="#2D4D68" d="M88,55c-3.859,0-7-3.141-7-7c0-1.654-1.346-3-3-3s-3,1.346-3,3
		c0,3.859-3.141,7-7,7s-7-3.141-7-7c0-1.654-1.346-3-3-3s-3,1.346-3,3c0,3.859-3.141,7-7,7c-3.859,0-7-3.141-7-7
		c0-1.654-1.346-3-3-3s-3,1.346-3,3c0,3.859-3.141,7-7,7s-7-3.141-7-7c0-1.654-1.346-3-3-3s-3,1.346-3,3c0,3.859-3.141,7-7,7
		c-3.776,0-8-2.993-8-7C0,21.533,21.533,0,48,0s48,21.533,48,48C96,52.007,91.776,55,88,55 M78,41c3.859,0,7,3.141,7,7
		c0,1.654,1.346,3,3,3c1.906,0,4-1.57,4-3C92,23.738,72.262,4,48,4C23.738,4,4,23.738,4,48c0,1.43,2.094,3,4,3c1.654,0,3-1.346,3-3
		c0-3.859,3.141-7,7-7s7,3.141,7,7c0,1.654,1.346,3,3,3s3-1.346,3-3c0-3.859,3.141-7,7-7s7,3.141,7,7c0,1.654,1.346,3,3,3
		c1.654,0,3-1.346,3-3c0-3.859,3.141-7,7-7s7,3.141,7,7c0,1.654,1.346,3,3,3s3-1.346,3-3C71,44.141,74.141,41,78,41"/>
</g>
</svg>
