<?xml version="1.0" encoding="utf-8"?>
<!-- Generator: Adobe Illustrator 16.0.0, SVG Export Plug-In . SVG Version: 6.00 Build 0)  -->
<!DOCTYPE svg PUBLIC "-//W3C//DTD SVG 1.1//EN" "http://www.w3.org/Graphics/SVG/1.1/DTD/svg11.dtd">
<svg version="1.1" id="Layer_1" xmlns="http://www.w3.org/2000/svg" xmlns:xlink="http://www.w3.org/1999/xlink" x="0px" y="0px"
	 width="96px" height="96px" viewBox="0 0 96 96" enable-background="new 0 0 96 96" xml:space="preserve">
<rect fill="#F7F7F7" width="96" height="96"/>
<g>
	<defs>
		<path id="SVGID_1_" d="M21,29c0,14.912,12.089,27,27,27c5.523,0,10,4.477,10,10s-4.477,10-10,10c-5.523,0-10-4.477-10-10
			c0-4.97-4.029-9-9-9s-9,4.03-9,9c0,15.464,12.536,28,28,28s28-12.536,28-28S63.464,38,48,38c-4.971,0-9-4.03-9-9s4.029-9,9-9
			c4.97,0,9,4.03,9,9s4.029,9,9,9c4.97,0,9-4.03,9-9C75,14.088,62.912,2,48,2C33.089,2,21,14.088,21,29"/>
	</defs>
	<clipPath id="SVGID_2_">
		<use xlink:href="#SVGID_1_"  overflow="visible"/>
	</clipPath>
</g>
<g>
	<defs>
		<rect id="SVGID_3_" width="96" height="96"/>
	</defs>
	<clipPath id="SVGID_4_">
		<use xlink:href="#SVGID_3_"  overflow="visible"/>
	</clipPath>
</g>
<g>
	<defs>
		<path id="SVGID_5_" d="M21,29c0,14.912,12.089,27,27,27c5.523,0,10,4.477,10,10s-4.477,10-10,10c-5.523,0-10-4.477-10-10
			c0-4.97-4.029-9-9-9s-9,4.03-9,9c0,15.464,12.536,28,28,28s28-12.536,28-28S63.464,38,48,38c-4.971,0-9-4.03-9-9s4.029-9,9-9
			c4.97,0,9,4.03,9,9s4.029,9,9,9c4.97,0,9-4.03,9-9C75,14.088,62.912,2,48,2C33.089,2,21,14.088,21,29"/>
	</defs>
	<clipPath id="SVGID_6_">
		<use xlink:href="#SVGID_5_"  overflow="visible"/>
	</clipPath>
	<path clip-path="url(#SVGID_6_)" fill="#32AA77" d="M48,38c-4.971,0-9-4.03-9-9c0-4.971,4.029-9,9-9c4.971,0,9,4.029,9,9
		s4.029,9,9,9s9-4.029,9-9C75,14.088,62.912,2,48,2S21,14.088,21,29s12.088,27,27,27c5.523,0,10,4.477,10,10s-4.477,10-10,10
		c-5.523,0-10-4.477-10-10c0-4.971-4.029-9-9-9s-9,4.029-9,9c0,15.464,12.536,28,28,28s28-12.536,28-28S63.464,38,48,38"/>
	<path clip-path="url(#SVGID_6_)" fill="#32AA77" d="M48,30c-4.971,0-9-4.03-9-9c0-4.971,4.029-9,9-9c4.971,0,9,4.029,9,9
		s4.029,9,9,9s9-4.029,9-9C75,6.088,62.912-6,48-6S21,6.088,21,21s12.088,27,27,27c5.523,0,10,4.477,10,10s-4.477,10-10,10
		c-5.523,0-10-4.477-10-10c0-4.971-4.029-9-9-9s-9,4.029-9,9c0,15.464,12.536,28,28,28s28-12.536,28-28S63.464,30,48,30"/>
	<path clip-path="url(#SVGID_6_)" fill="#567B8E" d="M13,58v15c0,2.761,2.239,5,5,5s5-2.239,5-5s2.239-5,5-5s5,2.239,5,5
		s2.239,5,5,5s5-2.239,5-5s2.239-5,5-5c2.761,0,5,2.239,5,5s2.239,5,5,5s5-2.239,5-5s2.239-5,5-5s5,2.239,5,5s2.239,5,5,5
		s5-2.239,5-5V58v-68H13V58z"/>
	<path clip-path="url(#SVGID_6_)" fill="#2D4D68" d="M78,80c-3.859,0-7-3.141-7-7c0-1.654-1.346-3-3-3s-3,1.346-3,3
		c0,3.859-3.141,7-7,7s-7-3.141-7-7c0-1.654-1.346-3-3-3c-1.654,0-3,1.346-3,3c0,3.859-3.141,7-7,7s-7-3.141-7-7
		c0-1.654-1.346-3-3-3s-3,1.346-3,3c0,3.859-3.141,7-7,7s-7-3.141-7-7v-83c0-1.104,0.896-2,2-2h70c1.104,0,2,0.896,2,2v83
		C85,76.859,81.859,80,78,80 M68,66c3.859,0,7,3.141,7,7c0,1.654,1.346,3,3,3s3-1.346,3-3V-8H15v81c0,1.654,1.346,3,3,3s3-1.346,3-3
		c0-3.859,3.141-7,7-7s7,3.141,7,7c0,1.654,1.346,3,3,3s3-1.346,3-3c0-3.859,3.141-7,7-7c3.859,0,7,3.141,7,7c0,1.654,1.346,3,3,3
		s3-1.346,3-3C61,69.141,64.141,66,68,66"/>
</g>
<g>
	<defs>
		<rect id="SVGID_7_" width="96" height="96"/>
	</defs>
	<clipPath id="SVGID_8_">
		<use xlink:href="#SVGID_7_"  overflow="visible"/>
	</clipPath>
	<path clip-path="url(#SVGID_8_)" fill="#2D4D68" d="M48,96c-16.542,0-30-13.458-30-30c0-6.065,4.935-11,11-11s11,4.935,11,11
		c0,4.411,3.589,8,8,8s8-3.589,8-8s-3.589-8-8-8c-15.99,0-29-13.01-29-29S32.01,0,48,0s29,13.01,29,29c0,6.065-4.935,11-11,11
		s-11-4.935-11-11c0-3.859-3.141-7-7-7c-3.859,0-7,3.141-7,7s3.141,7,7,7c16.542,0,30,13.458,30,30S64.542,96,48,96 M29,59
		c-3.859,0-7,3.141-7,7c0,14.337,11.663,26,26,26s26-11.663,26-26S62.337,40,48,40c-6.065,0-11-4.935-11-11s4.935-11,11-11
		c6.065,0,11,4.935,11,11c0,3.859,3.141,7,7,7s7-3.141,7-7C73,15.215,61.785,4,48,4S23,15.215,23,29s11.215,25,25,25
		c6.617,0,12,5.383,12,12s-5.383,12-12,12s-12-5.383-12-12C36,62.141,32.859,59,29,59"/>
	<path clip-path="url(#SVGID_8_)" fill="#32AA77" d="M24,32c0,3.314,2.686,6,6,6s6-2.686,6-6s-2.686-6-6-6S24,28.686,24,32"/>
	<path clip-path="url(#SVGID_8_)" fill="#2D4D68" d="M30,40c-4.411,0-8-3.589-8-8s3.589-8,8-8s8,3.589,8,8S34.411,40,30,40 M30,28
		c-2.206,0-4,1.794-4,4s1.794,4,4,4s4-1.794,4-4S32.206,28,30,28"/>
	<path clip-path="url(#SVGID_8_)" fill="#32AA77" d="M48,12c0,3.314,2.686,6,6,6s6-2.686,6-6s-2.686-6-6-6S48,8.686,48,12"/>
	<path clip-path="url(#SVGID_8_)" fill="#2D4D68" d="M54,20c-4.411,0-8-3.589-8-8s3.589-8,8-8s8,3.589,8,8S58.411,20,54,20 M54,8
		c-2.206,0-4,1.794-4,4s1.794,4,4,4s4-1.794,4-4S56.206,8,54,8"/>
</g>
</svg>
