<svg id="Layer_1" data-name="Layer 1" xmlns="http://www.w3.org/2000/svg" xmlns:xlink="http://www.w3.org/1999/xlink" viewBox="0 0 64 64"><defs><style>.cls-1{fill:url(#linear-gradient);}.cls-2{fill:url(#linear-gradient-2);}.cls-3{fill:none;stroke:#9c9fa0;stroke-linecap:round;stroke-miterlimit:10;stroke-width:2px;}.cls-4{fill:#c4c4c4;}.cls-5{fill:#e0e0e0;}.cls-6{fill:#fff;}</style><linearGradient id="linear-gradient" x1="46.72" y1="46.39" x2="25.63" y2="19.08" gradientTransform="matrix(-1, 0, 0, 1, 65.97, 0)" gradientUnits="userSpaceOnUse"><stop offset="0" stop-color="#f2f2f2"/><stop offset="1" stop-color="#cfcfcf"/></linearGradient><linearGradient id="linear-gradient-2" x1="-52.44" y1="96.91" x2="-40.82" y2="114.56" gradientTransform="matrix(0, -1, -1, 0, 149.19, -17.25)" gradientUnits="userSpaceOnUse"><stop offset="0.02" stop-color="#fff"/><stop offset="1" stop-color="#fff" stop-opacity="0"/></linearGradient></defs><title>smiley_Artboard 35</title><path class="cls-1" d="M23.66,9.9a17.49,17.49,0,0,1,15.47,9.32A13.75,13.75,0,1,1,46,44.84l-22.39.06a17.5,17.5,0,0,1,0-35Z"/><circle class="cls-2" cx="46.05" cy="31.09" r="13.75" transform="translate(3.72 67.08) rotate(-74.39)"/><line class="cls-3" x1="32.13" y1="27.1" x2="32.13" y2="37.23"/><polyline class="cls-3" points="33.3 25.79 32.13 27.26 30.95 25.79"/><polyline class="cls-3" points="30.95 38.55 32.13 37.08 33.3 38.55"/><line class="cls-3" x1="36.51" y1="29.63" x2="27.74" y2="34.7"/><polyline class="cls-3" points="38.24 30 36.38 29.71 37.06 27.96"/><polyline class="cls-3" points="26.01 34.34 27.87 34.62 27.19 36.38"/><line class="cls-3" x1="36.51" y1="34.7" x2="27.74" y2="29.63"/><polyline class="cls-3" points="37.06 36.38 36.38 34.62 38.24 34.34"/><polyline class="cls-3" points="27.19 27.96 27.87 29.71 26.01 30"/><circle class="cls-4" cx="26.5" cy="52.63" r="2"/><circle class="cls-5" cx="36.5" cy="55.63" r="1.5"/><circle class="cls-5" cx="18.5" cy="48.63" r="1.5"/><circle class="cls-6" cx="32.5" cy="48.63" r="1"/><circle class="cls-6" cx="46.5" cy="55.63" r="1"/><circle class="cls-6" cx="17.5" cy="55.63" r="1"/><circle class="cls-4" cx="42.5" cy="49.63" r="2"/></svg>