<svg id="Layer_1" data-name="Layer 1" xmlns="http://www.w3.org/2000/svg" xmlns:xlink="http://www.w3.org/1999/xlink" viewBox="0 0 64 64"><defs><style>.cls-1{fill:#efcc00;}.cls-2{fill:url(#linear-gradient);}.cls-3{fill:url(#linear-gradient-2);}</style><linearGradient id="linear-gradient" x1="46.72" y1="58.39" x2="25.63" y2="31.08" gradientTransform="matrix(-1, 0, 0, 1, 65.97, 0)" gradientUnits="userSpaceOnUse"><stop offset="0" stop-color="#f2f2f2"/><stop offset="1" stop-color="#cfcfcf"/></linearGradient><linearGradient id="linear-gradient-2" x1="4.06" y1="116.66" x2="15.68" y2="134.3" gradientTransform="matrix(0, -1, -1, 0, 168.93, 51.25)" gradientUnits="userSpaceOnUse"><stop offset="0.02" stop-color="#fff"/><stop offset="1" stop-color="#fff" stop-opacity="0"/></linearGradient></defs><title>smiley_Artboard 5</title><path class="cls-1" d="M50,26.71A13.88,13.88,0,0,1,37.86,8.77.6.6,0,0,0,37,8.08,13.88,13.88,0,1,0,55.92,27a.6.6,0,0,0-.69-.89A13.91,13.91,0,0,1,50,26.71Z"/><path class="cls-2" d="M23.66,21.9a17.49,17.49,0,0,1,15.47,9.32A13.75,13.75,0,1,1,46,56.84l-22.39.06a17.5,17.5,0,0,1,0-35Z"/><circle class="cls-3" cx="46.05" cy="43.09" r="13.75" transform="translate(-7.84 75.85) rotate(-74.39)"/></svg>