<svg id="Layer_1" data-name="Layer 1" xmlns="http://www.w3.org/2000/svg" xmlns:xlink="http://www.w3.org/1999/xlink" viewBox="0 0 64 64"><defs><style>.cls-1{fill:#efcc00;}.cls-2{fill:none;stroke:#efcc00;stroke-linecap:round;stroke-miterlimit:10;stroke-width:3px;}.cls-3{fill:url(#linear-gradient);}.cls-4{fill:url(#linear-gradient-2);}</style><linearGradient id="linear-gradient" x1="46.72" y1="58.39" x2="25.63" y2="31.08" gradientTransform="matrix(-1, 0, 0, 1, 65.8, 0)" gradientUnits="userSpaceOnUse"><stop offset="0" stop-color="#f2f2f2"/><stop offset="1" stop-color="#cfcfcf"/></linearGradient><linearGradient id="linear-gradient-2" x1="12.25" y1="56.93" x2="23.86" y2="74.58" gradientTransform="matrix(0, -1, -1, 0, 109.04, 59.43)" gradientUnits="userSpaceOnUse"><stop offset="0.02" stop-color="#fff"/><stop offset="1" stop-color="#fff" stop-opacity="0"/></linearGradient></defs><title>smiley_Artboard 2</title><circle class="cls-1" cx="39.8" cy="28" r="12.59"/><line class="cls-2" x1="39.8" y1="8" x2="39.8" y2="12.44"/><line class="cls-2" x1="39.8" y1="43.56" x2="39.8" y2="48"/><line class="cls-2" x1="19.8" y1="28" x2="24.25" y2="28"/><line class="cls-2" x1="55.36" y1="28" x2="59.8" y2="28"/><line class="cls-2" x1="25.66" y1="13.86" x2="28.8" y2="17"/><line class="cls-2" x1="50.8" y1="39" x2="53.94" y2="42.14"/><line class="cls-2" x1="25.66" y1="42.14" x2="28.8" y2="39"/><line class="cls-2" x1="50.8" y1="17" x2="53.94" y2="13.86"/><path class="cls-3" d="M23.5,21.9A17.49,17.49,0,0,1,39,31.22a13.75,13.75,0,1,1,6.92,25.62L23.5,56.9a17.5,17.5,0,0,1,0-35Z"/><circle class="cls-4" cx="45.89" cy="43.09" r="13.75" transform="translate(-7.96 75.69) rotate(-74.39)"/></svg>