<svg id="Layer_1" data-name="Layer 1" xmlns="http://www.w3.org/2000/svg" xmlns:xlink="http://www.w3.org/1999/xlink" viewBox="0 0 64 64"><defs><style>.cls-1{fill:url(#linear-gradient);}.cls-2{fill:url(#linear-gradient-2);}.cls-3{fill:#efcc00;}.cls-4{fill:#0baeff;}</style><linearGradient id="linear-gradient" x1="342.72" y1="46.39" x2="321.63" y2="19.08" gradientTransform="matrix(-1, 0, 0, 1, 361.97, 0)" gradientUnits="userSpaceOnUse"><stop offset="0" stop-color="#f2f2f2"/><stop offset="1" stop-color="#cfcfcf"/></linearGradient><linearGradient id="linear-gradient-2" x1="258.02" y1="139.46" x2="269.63" y2="157.11" gradientTransform="matrix(0, -1, -1, 0, 191.73, 293.2)" gradientUnits="userSpaceOnUse"><stop offset="0.02" stop-color="#fff"/><stop offset="1" stop-color="#fff" stop-opacity="0"/></linearGradient></defs><title>smiley_Artboard 23</title><path class="cls-1" d="M23.66,9.9a17.49,17.49,0,0,1,15.47,9.32A13.75,13.75,0,1,1,46,44.84l-22.39.06a17.5,17.5,0,0,1,0-35Z"/><circle class="cls-2" cx="46.05" cy="31.09" r="13.75" transform="translate(3.72 67.08) rotate(-74.39)"/><polygon class="cls-3" points="33.13 36.35 31 48.6 35.26 48.6 33.13 57.65 43.25 44.87 38.46 44.87 42.72 36.35 33.13 36.35"/><path class="cls-4" d="M28.85,53.28a3.72,3.72,0,1,1-7.44,0c0-3.26,3-6.28,3.72-6.28S28.85,50,28.85,53.28Z"/></svg>