<svg id="Layer_1" data-name="Layer 1" xmlns="http://www.w3.org/2000/svg" xmlns:xlink="http://www.w3.org/1999/xlink" viewBox="0 0 64 64"><defs><style>.cls-1{fill:url(#linear-gradient);}.cls-2{fill:url(#linear-gradient-2);}.cls-3,.cls-4{fill:none;stroke-linecap:round;stroke-miterlimit:10;stroke-width:3px;}.cls-3{stroke:#a5a9aa;}.cls-4{stroke:#b9c1c6;}</style><linearGradient id="linear-gradient" x1="-693.28" y1="46.39" x2="-714.37" y2="19.08" gradientTransform="matrix(-1, 0, 0, 1, -674.03, 0)" gradientUnits="userSpaceOnUse"><stop offset="0" stop-color="#f2f2f2"/><stop offset="1" stop-color="#cfcfcf"/></linearGradient><linearGradient id="linear-gradient-2" x1="-719.07" y1="5.56" x2="-707.45" y2="23.2" gradientTransform="matrix(0, -1, -1, 0, 57.83, -683.88)" gradientUnits="userSpaceOnUse"><stop offset="0.02" stop-color="#fff"/><stop offset="1" stop-color="#fff" stop-opacity="0"/></linearGradient></defs><title>smiley_Artboard 10</title><path class="cls-1" d="M23.66,9.9a17.49,17.49,0,0,1,15.47,9.32A13.75,13.75,0,1,1,46,44.84l-22.39.06a17.5,17.5,0,0,1,0-35Z"/><circle class="cls-2" cx="46.05" cy="31.09" r="13.75" transform="translate(3.72 67.08) rotate(-74.39)"/><path class="cls-3" d="M43.53,40.5A2.5,2.5,0,0,1,46,43h0a2.5,2.5,0,0,1-2.5,2.5h-21a3,3,0,0,0-3,3h0a3,3,0,0,0,3,3H42.25a2,2,0,0,1,2,2v.08a2,2,0,0,1-2,2H40.5"/><path class="cls-4" d="M51.5,53.5a2,2,0,0,0,2-2h0a2,2,0,0,0-2-2h-4"/></svg>